<svg width="current" height="current" viewBox="current" fill="none" xmlns="http://www.w3.org/2000/svg">
<path d="M14.6667 26.0925V24.611H5.34667L5.33333 30.537C5.33333 32.1814 6.52 33.4999 8 33.4999H26.6667C28.1467 33.4999 29.3333 32.1814 29.3333 30.537V24.611H20V26.0925H14.6667ZM28 12.7592H22.6533V9.79621L19.9867 6.83325H14.6533L11.9867 9.79621V12.7592H6.66667C5.2 12.7592 4 14.0925 4 15.7221V20.1666C4 21.811 5.18667 23.1295 6.66667 23.1295H14.6667V20.1666H20V23.1295H28C29.4667 23.1295 30.6667 21.7962 30.6667 20.1666V15.7221C30.6667 14.0925 29.4667 12.7592 28 12.7592ZM20 12.7592H14.6667V9.79621H20V12.7592Z" fill="current"/>
</svg>
