<svg width="24" height="25" viewBox="0 0 24 25" fill="none" xmlns="http://www.w3.org/2000/svg">
<path d="M22.0049 10.3335V20.3335C22.0049 20.5987 21.8995 20.8531 21.712 21.0406C21.5245 21.2281 21.2701 21.3335 21.0049 21.3335H3.00488C2.73967 21.3335 2.48531 21.2281 2.29778 21.0406C2.11024 20.8531 2.00488 20.5987 2.00488 20.3335V10.3335H22.0049ZM22.0049 8.3335H2.00488V4.3335C2.00488 4.06828 2.11024 3.81393 2.29778 3.62639C2.48531 3.43885 2.73967 3.3335 3.00488 3.3335H21.0049C21.2701 3.3335 21.5245 3.43885 21.712 3.62639C21.8995 3.81393 22.0049 4.06828 22.0049 4.3335V8.3335ZM15.0049 16.3335V18.3335H19.0049V16.3335H15.0049Z" fill="#F9B501"/>
</svg>
