<svg width="25" height="24" viewBox="0 0 25 24" fill="none" xmlns="http://www.w3.org/2000/svg">
<path d="M6.6665 1V3H5.6665C4.5565 3 3.6665 3.89 3.6665 5V19C3.6665 19.5304 3.87722 20.0391 4.25229 20.4142C4.62736 20.7893 5.13607 21 5.6665 21H11.7665C13.0265 22.24 14.7565 23 16.6665 23C20.5365 23 23.6665 19.87 23.6665 16C23.6665 14.09 22.9065 12.36 21.6665 11.1V5C21.6665 4.46957 21.4558 3.96086 21.0807 3.58579C20.7056 3.21071 20.1969 3 19.6665 3H18.6665V1H16.6665V3H8.6665V1M5.6665 5H19.6665V7H5.6665M5.6665 9H19.6665V9.67C18.7565 9.24 17.7365 9 16.6665 9C12.7965 9 9.6665 12.13 9.6665 16C9.6665 17.07 9.9065 18.09 10.3365 19H5.6665M16.6665 11.15C19.3465 11.15 21.5165 13.32 21.5165 16C21.5165 18.68 19.3465 20.85 16.6665 20.85C13.9865 20.85 11.8165 18.68 11.8165 16C11.8165 13.32 13.9865 11.15 16.6665 11.15ZM15.6665 13V16.69L18.8565 18.53L19.6065 17.23L17.1665 15.82V13H15.6665Z" fill="#F9B501"/>
</svg>
