<svg width="20" height="20" viewBox="0 0 20 20" fill="none" xmlns="http://www.w3.org/2000/svg">
<path d="M18.6909 16.9842C19.019 17.3488 19.019 17.8957 18.6545 18.2238L17.6336 19.2446C17.3055 19.6092 16.7586 19.6092 16.394 19.2446L12.7847 15.6353C12.6024 15.453 12.5295 15.2342 12.5295 15.0155V14.3957C11.217 15.4165 9.61279 15.9998 7.86279 15.9998C3.67008 15.9998 0.279459 12.6092 0.279459 8.4165C0.279459 4.26025 3.67008 0.833169 7.86279 0.833169C12.019 0.833169 15.4461 4.26025 15.4461 8.4165C15.4461 10.203 14.8263 11.8071 13.842 13.0832H14.4253C14.644 13.0832 14.8628 13.1925 15.0451 13.3384L18.6909 16.9842ZM7.86279 13.0832C10.4149 13.0832 12.5295 11.005 12.5295 8.4165C12.5295 5.86442 10.4149 3.74984 7.86279 3.74984C5.27425 3.74984 3.19613 5.86442 3.19613 8.4165C3.19613 11.005 5.27425 13.0832 7.86279 13.0832Z" fill="white"/>
</svg>
