<svg width="48" height="47" viewBox="0 0 48 47" fill="none" xmlns="http://www.w3.org/2000/svg">
<path d="M13.5 30.8332C14.384 30.8332 15.2319 31.1844 15.857 31.8095C16.4821 32.4346 16.8333 33.2824 16.8333 34.1665C16.8333 35.0506 16.4821 35.8984 15.857 36.5235C15.2319 37.1486 14.384 37.4998 13.5 37.4998C12.6159 37.4998 11.7681 37.1486 11.1429 36.5235C10.5178 35.8984 10.1666 35.0506 10.1666 34.1665C10.1666 33.2824 10.5178 32.4346 11.1429 31.8095C11.7681 31.1844 12.6159 30.8332 13.5 30.8332ZM24.3333 30.8332C25.2173 30.8332 26.0652 31.1844 26.6903 31.8095C27.3154 32.4346 27.6666 33.2824 27.6666 34.1665C27.6666 35.0506 27.3154 35.8984 26.6903 36.5235C26.0652 37.1486 25.2173 37.4998 24.3333 37.4998C23.4492 37.4998 22.6014 37.1486 21.9763 36.5235C21.3511 35.8984 21 35.0506 21 34.1665C21 33.2824 21.3511 32.4346 21.9763 31.8095C22.6014 31.1844 23.4492 30.8332 24.3333 30.8332ZM35.1666 30.8332C36.0507 30.8332 36.8985 31.1844 37.5236 31.8095C38.1488 32.4346 38.5 33.2824 38.5 34.1665C38.5 35.0506 38.1488 35.8984 37.5236 36.5235C36.8985 37.1486 36.0507 37.4998 35.1666 37.4998C34.2826 37.4998 33.4347 37.1486 32.8096 36.5235C32.1845 35.8984 31.8333 35.0506 31.8333 34.1665C31.8333 33.2824 32.1845 32.4346 32.8096 31.8095C33.4347 31.1844 34.2826 30.8332 35.1666 30.8332ZM13.5 19.9998C14.384 19.9998 15.2319 20.351 15.857 20.9761C16.4821 21.6013 16.8333 22.4491 16.8333 23.3332C16.8333 24.2172 16.4821 25.0651 15.857 25.6902C15.2319 26.3153 14.384 26.6665 13.5 26.6665C12.6159 26.6665 11.7681 26.3153 11.1429 25.6902C10.5178 25.0651 10.1666 24.2172 10.1666 23.3332C10.1666 22.4491 10.5178 21.6013 11.1429 20.9761C11.7681 20.351 12.6159 19.9998 13.5 19.9998ZM24.3333 19.9998C25.2173 19.9998 26.0652 20.351 26.6903 20.9761C27.3154 21.6013 27.6666 22.4491 27.6666 23.3332C27.6666 24.2172 27.3154 25.0651 26.6903 25.6902C26.0652 26.3153 25.2173 26.6665 24.3333 26.6665C23.4492 26.6665 22.6014 26.3153 21.9763 25.6902C21.3511 25.0651 21 24.2172 21 23.3332C21 22.4491 21.3511 21.6013 21.9763 20.9761C22.6014 20.351 23.4492 19.9998 24.3333 19.9998ZM35.1666 19.9998C36.0507 19.9998 36.8985 20.351 37.5236 20.9761C38.1488 21.6013 38.5 22.4491 38.5 23.3332C38.5 24.2172 38.1488 25.0651 37.5236 25.6902C36.8985 26.3153 36.0507 26.6665 35.1666 26.6665C34.2826 26.6665 33.4347 26.3153 32.8096 25.6902C32.1845 25.0651 31.8333 24.2172 31.8333 23.3332C31.8333 22.4491 32.1845 21.6013 32.8096 20.9761C33.4347 20.351 34.2826 19.9998 35.1666 19.9998ZM13.5 9.1665C14.384 9.1665 15.2319 9.51769 15.857 10.1428C16.4821 10.7679 16.8333 11.6158 16.8333 12.4998C16.8333 13.3839 16.4821 14.2317 15.857 14.8569C15.2319 15.482 14.384 15.8332 13.5 15.8332C12.6159 15.8332 11.7681 15.482 11.1429 14.8569C10.5178 14.2317 10.1666 13.3839 10.1666 12.4998C10.1666 11.6158 10.5178 10.7679 11.1429 10.1428C11.7681 9.51769 12.6159 9.1665 13.5 9.1665ZM24.3333 9.1665C25.2173 9.1665 26.0652 9.51769 26.6903 10.1428C27.3154 10.7679 27.6666 11.6158 27.6666 12.4998C27.6666 13.3839 27.3154 14.2317 26.6903 14.8569C26.0652 15.482 25.2173 15.8332 24.3333 15.8332C23.4492 15.8332 22.6014 15.482 21.9763 14.8569C21.3511 14.2317 21 13.3839 21 12.4998C21 11.6158 21.3511 10.7679 21.9763 10.1428C22.6014 9.51769 23.4492 9.1665 24.3333 9.1665ZM35.1666 9.1665C36.0507 9.1665 36.8985 9.51769 37.5236 10.1428C38.1488 10.7679 38.5 11.6158 38.5 12.4998C38.5 13.3839 38.1488 14.2317 37.5236 14.8569C36.8985 15.482 36.0507 15.8332 35.1666 15.8332C34.2826 15.8332 33.4347 15.482 32.8096 14.8569C32.1845 14.2317 31.8333 13.3839 31.8333 12.4998C31.8333 11.6158 32.1845 10.7679 32.8096 10.1428C33.4347 9.51769 34.2826 9.1665 35.1666 9.1665Z" fill="#F9B501"/>
</svg>
