<svg width="47" height="47" viewBox="0 0 47 47" fill="none" xmlns="http://www.w3.org/2000/svg">
<path d="M20.127 34.7221V32.4999H6.14695L6.12695 41.3888C6.12695 43.8555 7.90695 45.8333 10.127 45.8333H38.127C40.347 45.8333 42.127 43.8555 42.127 41.3888V32.4999H28.127V34.7221H20.127ZM40.127 14.7221H32.107V10.2777L28.107 5.83325H20.107L16.107 10.2777V14.7221H8.12695C5.92695 14.7221 4.12695 16.7221 4.12695 19.1666V25.8333C4.12695 28.2999 5.90695 30.2777 8.12695 30.2777H20.127V25.8333H28.127V30.2777H40.127C42.327 30.2777 44.127 28.2777 44.127 25.8333V19.1666C44.127 16.7221 42.327 14.7221 40.127 14.7221ZM28.127 14.7221H20.127V10.2777H28.127V14.7221Z" fill="#F9B501"/>
</svg>
