<svg width="24" height="25" viewBox="0 0 24 25" fill="none" xmlns="http://www.w3.org/2000/svg">
<path d="M15.07 11.5835L14.17 12.5035C13.45 13.2235 13 13.8335 13 15.3335H11V14.8335C11 13.7235 11.45 12.7235 12.17 12.0035L13.41 10.7435C13.78 10.3835 14 9.8835 14 9.3335C14 8.80306 13.7893 8.29436 13.4142 7.91928C13.0391 7.54421 12.5304 7.3335 12 7.3335C11.4696 7.3335 10.9609 7.54421 10.5858 7.91928C10.2107 8.29436 10 8.80306 10 9.3335H8C8 8.27263 8.42143 7.25521 9.17157 6.50507C9.92172 5.75492 10.9391 5.3335 12 5.3335C13.0609 5.3335 14.0783 5.75492 14.8284 6.50507C15.5786 7.25521 16 8.27263 16 9.3335C15.9986 10.1767 15.6643 10.9853 15.07 11.5835ZM13 19.3335H11V17.3335H13M12 2.3335C10.6868 2.3335 9.38642 2.59215 8.17317 3.0947C6.95991 3.59725 5.85752 4.33384 4.92893 5.26243C3.05357 7.13779 2 9.68133 2 12.3335C2 14.9857 3.05357 17.5292 4.92893 19.4046C5.85752 20.3331 6.95991 21.0697 8.17317 21.5723C9.38642 22.0748 10.6868 22.3335 12 22.3335C14.6522 22.3335 17.1957 21.2799 19.0711 19.4046C20.9464 17.5292 22 14.9857 22 12.3335C22 6.8035 17.5 2.3335 12 2.3335Z" fill="#F9B501"/>
</svg>
