<svg width="154" height="154" viewBox="0 0 154 154" fill="none" xmlns="http://www.w3.org/2000/svg">
<g clip-path="url(#clip0_2575_11026)">
<path d="M130.324 77.2302C130.324 83.378 129.387 89.3107 127.642 94.8842C127.453 95.5062 127.25 96.121 127.031 96.732C126.342 98.7245 125.543 100.665 124.646 102.554C123.895 104.146 123.072 105.698 122.18 107.205C120.403 110.231 118.366 113.083 116.092 115.73C113.714 118.504 111.084 121.056 108.24 123.352C98.0894 131.525 85.1829 136.421 71.1323 136.421C38.4426 136.421 11.9412 109.92 11.9412 77.2302C11.9412 44.5405 38.442 18.0391 71.132 18.0391C103.822 18.0391 130.324 44.5405 130.324 77.2302Z" fill="url(#paint0_linear_2575_11026)"/>
<path d="M71.3839 37.2061C69.0658 37.2061 67.1863 71.0559 67.1863 73.3976C67.1863 74.8897 67.9512 76.1996 69.1047 76.9551L112.348 120.637C119.644 113.544 125.136 104.574 128.069 94.4969C118.412 84.8136 71.3839 37.2061 71.3839 37.2061Z" fill="url(#paint1_linear_2575_11026)"/>
<path d="M71.6961 81.1763C73.5641 81.1763 75.0784 79.662 75.0784 77.794C75.0784 75.926 73.5641 74.4116 71.6961 74.4116C69.8281 74.4116 68.3137 75.926 68.3137 77.794C68.3137 79.662 69.8281 81.1763 71.6961 81.1763Z" fill="url(#paint2_linear_2575_11026)"/>
<path d="M71.1327 30.4414C70.6657 30.4414 70.2429 30.6036 69.9367 30.8661C69.6308 31.1283 69.4412 31.4907 69.4412 31.8913V42.5212C69.4412 42.8213 69.5475 43.1002 69.7299 43.3316C69.8513 43.4859 70.0066 43.619 70.1866 43.723C70.2765 43.7754 70.3728 43.82 70.474 43.8568C70.6763 43.93 70.8988 43.9708 71.132 43.9708C71.599 43.9708 72.0218 43.8086 72.328 43.5461C72.6339 43.2836 72.8235 42.9215 72.8235 42.5209V31.891C72.8239 31.0904 72.0664 30.4414 71.1327 30.4414Z" fill="url(#paint3_linear_2575_11026)"/>
<path d="M71.1325 110.49C70.1984 110.49 69.4412 111.194 69.4412 112.061V123.577C69.4412 123.726 69.4707 123.868 69.5128 124.005C69.7145 124.662 70.3595 125.147 71.1322 125.147C71.3657 125.147 71.5883 125.103 71.7903 125.024C72.3972 124.785 72.8235 124.227 72.8235 123.576V112.06C72.8239 111.193 72.0663 110.49 71.1325 110.49Z" fill="url(#paint4_linear_2575_11026)"/>
<path d="M117.479 75.5391H105.963C105.095 75.5391 104.392 76.2962 104.392 77.2302C104.392 78.1643 105.095 78.9214 105.963 78.9214H117.479C118.346 78.9214 119.049 78.1643 119.049 77.2302C119.049 76.2962 118.346 75.5391 117.479 75.5391Z" fill="url(#paint5_linear_2575_11026)"/>
<path d="M37.8726 77.2301C37.8726 76.88 37.7814 76.5543 37.6251 76.2844C37.521 76.1044 37.3879 75.9491 37.2336 75.8278C37.0023 75.6453 36.7234 75.5391 36.423 75.5391H25.793C25.3927 75.5391 25.0303 75.7283 24.7678 76.0345C24.5057 76.3407 24.3431 76.7631 24.3431 77.2304C24.3431 78.1644 24.9921 78.9214 25.7927 78.9214H36.4224C36.8227 78.9214 37.1851 78.7322 37.4476 78.426C37.71 78.1198 37.8726 77.6974 37.8726 77.2301Z" fill="url(#paint6_linear_2575_11026)"/>
<path d="M96.9239 53.7042L105.06 46.3816C105.673 45.8301 105.673 44.9359 105.06 44.3844C104.447 43.8327 103.454 43.8329 102.841 44.3844L94.7049 51.707C94.0919 52.2588 94.0919 53.1527 94.7049 53.7042C95.3176 54.2556 96.3112 54.2556 96.9239 53.7042Z" fill="url(#paint7_linear_2575_11026)"/>
<path d="M47.6061 100.803C47.0545 100.19 46.1602 100.19 45.6086 100.803L38.2847 108.939C37.809 109.467 37.746 110.278 38.0908 110.884C38.1347 110.961 38.1871 111.033 38.2441 111.103C38.2587 111.121 38.269 111.141 38.2847 111.158C38.5539 111.457 38.9047 111.608 39.2576 111.615C39.2661 111.615 39.2747 111.618 39.2833 111.618C39.6447 111.618 40.0061 111.464 40.2822 111.158L47.6061 103.022C47.8129 102.792 47.9423 102.509 47.9938 102.212C48.011 102.114 48.0196 102.013 48.0196 101.913C48.0199 101.511 47.8822 101.109 47.6061 100.803Z" fill="url(#paint8_linear_2575_11026)"/>
<path d="M105.065 108.941L96.9249 100.799C96.7333 100.608 96.5028 100.483 96.2603 100.411C96.027 100.342 95.7825 100.324 95.5438 100.365C95.2367 100.419 94.9423 100.562 94.7051 100.799C94.0918 101.412 94.0918 102.406 94.7051 103.019L102.845 111.161C102.937 111.253 103.039 111.326 103.146 111.391C103.749 111.755 104.544 111.682 105.065 111.161C105.315 110.911 105.458 110.597 105.504 110.272C105.57 109.8 105.428 109.304 105.065 108.941Z" fill="url(#paint9_linear_2575_11026)"/>
<path d="M40.2835 44.3845C40.0077 44.1087 39.6461 43.9707 39.2848 43.9707C39.1946 43.9707 39.1041 43.9793 39.015 43.9965C38.7479 44.0483 38.493 44.1772 38.2863 44.3842C38.0106 44.6599 37.8726 45.0216 37.8726 45.3829C37.8726 45.4731 37.8811 45.5636 37.8983 45.6527C37.9502 45.9198 38.079 46.1747 38.286 46.3814L45.6087 53.7043C45.6213 53.7169 45.6362 53.7252 45.6494 53.7372C45.7782 53.8569 45.9217 53.9517 46.076 54.0144C46.2458 54.0834 46.4267 54.1178 46.6074 54.1178C46.9688 54.1178 47.3304 53.9797 47.6062 53.704C47.8129 53.4973 47.9423 53.2421 47.9938 52.9753C48.011 52.8862 48.0196 52.796 48.0196 52.7055C48.0196 52.3442 47.8816 51.9825 47.6059 51.7068L40.2835 44.3845Z" fill="url(#paint10_linear_2575_11026)"/>
<path d="M124.686 103.041C123.937 104.648 123.117 106.213 122.227 107.733C120.455 110.785 118.424 113.661 116.156 116.332C113.786 119.13 111.164 121.704 108.328 124.019L66.8063 82.0713C64.3064 79.546 64.3064 75.452 66.8063 72.9268C66.917 72.8149 67.0279 72.71 67.1459 72.6092C69.5385 70.5027 73.1133 70.5027 75.5062 72.6092C75.6245 72.71 75.7351 72.8146 75.8457 72.9268C75.9563 73.0387 76.0672 73.1584 76.1633 73.2781H76.1668C76.2406 73.2817 76.3146 73.2856 76.3958 73.2892C76.5361 73.3004 76.6913 73.3079 76.8572 73.319C77.7287 73.375 78.9216 73.4685 80.3062 73.5954C80.7198 73.6327 81.1518 73.6739 81.5987 73.7187C81.9198 73.7521 82.2487 73.7822 82.5847 73.8195C82.8692 73.8493 83.1573 73.8793 83.4523 73.9091C83.6663 73.9314 83.8843 73.9578 84.1022 73.9801C84.4495 74.0174 84.7965 74.0586 85.1473 74.0998C86.8165 74.2941 88.5446 74.5143 90.1951 74.7612C90.4204 74.7946 90.6455 74.8286 90.8673 74.8655C90.9003 74.8692 90.9375 74.8731 90.9705 74.8806C91.2289 74.9218 91.484 74.9627 91.7349 75.0003C91.9859 75.0451 92.2335 75.0863 92.4773 75.1272C92.6397 75.157 92.8023 75.1835 92.9647 75.2132C93.212 75.258 93.4594 75.3029 93.7032 75.3516C93.8251 75.3738 93.947 75.3964 94.0651 75.419C94.316 75.4713 94.556 75.5197 94.7926 75.5684C94.8664 75.5835 94.9369 75.5982 95.007 75.6133C95.1031 75.6355 95.1991 75.6584 95.2916 75.6767C95.3359 75.6842 95.3802 75.6954 95.4245 75.7065C95.5612 75.7399 95.6977 75.7699 95.8268 75.7997C95.9189 75.822 96.0075 75.8448 96.0926 75.8632C96.436 75.9528 96.7574 76.0385 97.0601 76.1245C97.1302 76.1468 97.2004 76.1694 97.267 76.188C97.3226 76.203 97.374 76.2214 97.4258 76.2367C97.5034 76.2629 97.5771 76.2891 97.6512 76.3116C97.677 76.3191 97.7029 76.3264 97.7288 76.3378C97.8765 76.3901 98.0133 76.4385 98.1423 76.4909C98.1533 76.4945 98.1643 76.502 98.1792 76.5056C98.2494 76.5354 98.3195 76.5655 98.3862 76.5916C98.5449 76.6626 98.6853 76.73 98.811 76.801C98.8666 76.8344 98.9142 76.8644 98.9624 76.8942C99.1173 76.995 99.2356 77.096 99.3132 77.1968C99.3391 77.2229 99.3575 77.253 99.3724 77.2789C99.376 77.2864 99.3798 77.29 99.3798 77.2939C99.3983 77.3273 99.4128 77.3613 99.4206 77.3983C99.4316 77.4317 99.4351 77.4657 99.4351 77.499L124.686 103.041Z" fill="url(#paint11_linear_2575_11026)"/>
<path d="M75.9013 82.3038C73.5789 82.3038 71.696 80.2846 71.696 77.794C71.696 75.3034 73.5789 73.2842 75.9013 73.2842C78.2237 73.2842 99.8823 75.3034 99.8823 77.794C99.8826 80.2849 78.2237 82.3038 75.9013 82.3038Z" fill="url(#paint12_linear_2575_11026)"/>
<path d="M76.2059 73.5376C76.2059 75.8884 74.1866 77.7943 71.6961 77.7943C69.2055 77.7943 67.1863 75.8884 67.1863 73.5376C67.1863 71.1869 69.2055 37.2061 71.6961 37.2061C74.1866 37.2064 76.2059 71.1869 76.2059 73.5376Z" fill="url(#paint13_linear_2575_11026)"/>
<path d="M71.1324 83.4313C74.5571 83.4313 77.3334 80.655 77.3334 77.2303C77.3334 73.8056 74.5571 71.0293 71.1324 71.0293C67.7077 71.0293 64.9314 73.8056 64.9314 77.2303C64.9314 80.655 67.7077 83.4313 71.1324 83.4313Z" fill="white"/>
<path d="M149.001 67.3527H142.187H141.87C136.919 33.1396 107.312 6.76465 71.635 6.76465C32.5027 6.76465 0.666626 38.4943 0.666626 77.4959C0.666626 93.5891 6.23603 109.34 16.3488 121.847C26.3092 134.166 40.2679 142.895 55.6533 146.426C56.0744 146.523 56.4952 146.569 56.9099 146.569C59.4504 146.569 61.7474 144.827 62.3419 142.255C63.0331 139.262 61.1596 136.278 58.1564 135.589C45.1973 132.615 33.4356 125.257 25.037 114.87C16.3935 104.18 11.8249 91.2565 11.8249 77.4965C11.8249 44.6269 38.6555 17.886 71.635 17.886C101.146 17.886 125.729 39.2985 130.575 67.353H124.69C120.245 67.353 118.02 72.7086 121.162 75.8406L133.318 87.9559C135.266 89.8975 138.425 89.8975 140.373 87.9559L152.529 75.8406C155.671 72.7083 153.445 67.3527 149.001 67.3527Z" fill="url(#paint14_linear_2575_11026)"/>
</g>
<defs>
<linearGradient id="paint0_linear_2575_11026" x1="73.7508" y1="79.8521" x2="151.085" y2="157.186" gradientUnits="userSpaceOnUse">
<stop stop-color="white"/>
<stop offset="1" stop-color="#C3C3C3"/>
</linearGradient>
<linearGradient id="paint1_linear_2575_11026" x1="95.3036" y1="79.3134" x2="31.8934" y2="72.2663" gradientUnits="userSpaceOnUse">
<stop stop-color="#C3C3C3" stop-opacity="0"/>
<stop offset="0.267" stop-color="#A4A4A4" stop-opacity="0.267"/>
<stop offset="0.542" stop-color="#8B8B8B" stop-opacity="0.542"/>
<stop offset="0.794" stop-color="#7C7C7C" stop-opacity="0.794"/>
<stop offset="1" stop-color="#777777"/>
</linearGradient>
<linearGradient id="paint2_linear_2575_11026" x1="71.6945" y1="76.14" x2="71.6945" y2="86.2346" gradientUnits="userSpaceOnUse">
<stop stop-color="#F18D00"/>
<stop offset="1" stop-color="#ED7103"/>
</linearGradient>
<linearGradient id="paint3_linear_2575_11026" x1="68.2596" y1="36.4991" x2="72.5701" y2="43.3203" gradientUnits="userSpaceOnUse">
<stop stop-color="#FF7A7A"/>
<stop offset="1" stop-color="#F75900"/>
</linearGradient>
<linearGradient id="paint4_linear_2575_11026" x1="68.2596" y1="117.053" x2="73.0796" y2="124.093" gradientUnits="userSpaceOnUse">
<stop stop-color="#FF7A7A"/>
<stop offset="1" stop-color="#F75900"/>
</linearGradient>
<linearGradient id="paint5_linear_2575_11026" x1="99.2718" y1="77.0535" x2="99.3587" y2="79.4366" gradientUnits="userSpaceOnUse">
<stop stop-color="#FF7A7A"/>
<stop offset="1" stop-color="#F75900"/>
</linearGradient>
<linearGradient id="paint6_linear_2575_11026" x1="19.6167" y1="77.0535" x2="19.7108" y2="79.436" gradientUnits="userSpaceOnUse">
<stop stop-color="#FF7A7A"/>
<stop offset="1" stop-color="#F75900"/>
</linearGradient>
<linearGradient id="paint7_linear_2575_11026" x1="90.3064" y1="48.514" x2="91.3041" y2="55.5309" gradientUnits="userSpaceOnUse">
<stop stop-color="#FF7A7A"/>
<stop offset="1" stop-color="#F75900"/>
</linearGradient>
<linearGradient id="paint8_linear_2575_11026" x1="34.3277" y1="105.391" x2="35.6823" y2="113.108" gradientUnits="userSpaceOnUse">
<stop stop-color="#FF7A7A"/>
<stop offset="1" stop-color="#F75900"/>
</linearGradient>
<linearGradient id="paint9_linear_2575_11026" x1="90.3064" y1="105.391" x2="91.5325" y2="113.152" gradientUnits="userSpaceOnUse">
<stop stop-color="#FF7A7A"/>
<stop offset="1" stop-color="#F75900"/>
</linearGradient>
<linearGradient id="paint10_linear_2575_11026" x1="34.3277" y1="48.514" x2="35.4312" y2="55.4985" gradientUnits="userSpaceOnUse">
<stop stop-color="#FF7A7A"/>
<stop offset="1" stop-color="#F75900"/>
</linearGradient>
<linearGradient id="paint11_linear_2575_11026" x1="94.6232" y1="91.3175" x2="68.5155" y2="62.9684" gradientUnits="userSpaceOnUse">
<stop stop-color="#C3C3C3" stop-opacity="0"/>
<stop offset="0.267" stop-color="#A4A4A4" stop-opacity="0.267"/>
<stop offset="0.542" stop-color="#8B8B8B" stop-opacity="0.542"/>
<stop offset="0.794" stop-color="#7C7C7C" stop-opacity="0.794"/>
<stop offset="1" stop-color="#777777"/>
</linearGradient>
<linearGradient id="paint12_linear_2575_11026" x1="91.9699" y1="76.157" x2="1.07224" y2="84.5438" gradientUnits="userSpaceOnUse">
<stop stop-color="#FFB92D"/>
<stop offset="1" stop-color="#F59500"/>
</linearGradient>
<linearGradient id="paint13_linear_2575_11026" x1="80.7713" y1="95.1089" x2="89.4153" y2="129.66" gradientUnits="userSpaceOnUse">
<stop stop-color="#FFB92D"/>
<stop offset="1" stop-color="#F59500"/>
</linearGradient>
<linearGradient id="paint14_linear_2575_11026" x1="13.9358" y1="22.7548" x2="125.524" y2="131.967" gradientUnits="userSpaceOnUse">
<stop stop-color="#FFCD61"/>
<stop offset="1" stop-color="#FFAE00"/>
</linearGradient>
<clipPath id="clip0_2575_11026">
<rect width="153.333" height="153.333" fill="white" transform="translate(0.666626)"/>
</clipPath>
</defs>
</svg>
