<svg width="22" height="21" viewBox="0 0 22 21" fill="none" xmlns="http://www.w3.org/2000/svg">
<path d="M5.58052 3.55885C5.91609 3.49513 6.26453 3.56074 6.54932 3.74126C6.83411 3.92178 7.03199 4.20247 7.09952 4.52169L8.55652 11.4534L9.74658 6.92267C9.81657 6.65689 9.97788 6.42098 10.2049 6.25243C10.4319 6.08387 10.7116 5.99232 10.9995 5.99232C11.2874 5.99232 11.5671 6.08387 11.7941 6.25243C12.0211 6.42098 12.1824 6.65689 12.2524 6.92267L13.4425 11.4534L14.8995 4.52088C14.9668 4.20118 15.1649 3.92005 15.4501 3.73933C15.7353 3.55861 16.0842 3.4931 16.4202 3.55721C16.7561 3.62132 17.0516 3.8098 17.2415 4.0812C17.4314 4.35259 17.5002 4.68465 17.4329 5.00435L16.8817 7.63149H17.0281C17.3707 7.63149 17.6992 7.76099 17.9415 7.9915C18.1837 8.22201 18.3198 8.53466 18.3198 8.86065C18.3198 9.18665 18.1837 9.49929 17.9415 9.72981C17.6992 9.96032 17.3707 10.0898 17.0281 10.0898H16.3651L16.1929 10.9093H17.0281C17.3707 10.9093 17.6992 11.0388 17.9415 11.2693C18.1837 11.4998 18.3198 11.8124 18.3198 12.1384C18.3198 12.4644 18.1837 12.7771 17.9415 13.0076C17.6992 13.2381 17.3707 13.3676 17.0281 13.3676H15.6762L15.0002 16.5815C14.6945 18.0384 12.5237 18.0876 12.1448 16.6462L11.0004 12.29L9.85508 16.6454C9.47705 18.0876 7.30619 18.0384 7.00049 16.5806L6.32452 13.3676H4.97257C4.63 13.3676 4.30146 13.2381 4.05923 13.0076C3.81699 12.7771 3.68091 12.4644 3.68091 12.1384C3.68091 11.8124 3.81699 11.4998 4.05923 11.2693C4.30146 11.0388 4.63 10.9093 4.97257 10.9093H5.80785L5.63563 10.0898H4.97257C4.63 10.0898 4.30146 9.96032 4.05923 9.72981C3.81699 9.49929 3.68091 9.18665 3.68091 8.86065C3.68091 8.53466 3.81699 8.22201 4.05923 7.9915C4.30146 7.76099 4.63 7.63149 4.97257 7.63149H5.11896L4.56785 5.00435C4.5009 4.68501 4.56984 4.35344 4.75954 4.08243C4.94924 3.81141 5.24506 3.62311 5.58052 3.55885Z" fill="#2E5BB8"/>
</svg>
