<svg width="35" height="36" viewBox="0 0 35 36" fill="none" xmlns="http://www.w3.org/2000/svg">
<path d="M26.6769 14.6417L20.8798 8.85198L22.8235 6.91073C23.3464 6.38852 23.9889 6.12742 24.7509 6.12742C25.5129 6.12742 26.1549 6.38852 26.6769 6.91073L28.6206 8.85198C29.1435 9.37419 29.4049 10.0158 29.4049 10.7769C29.4049 11.5379 29.1435 12.1791 28.6206 12.7004L26.6769 14.6417ZM5.05712 30.4442V24.6545L11.1952 18.5242L4 11.27L10.445 4.83325L17.6743 12.0874L18.9702 10.7932L24.7673 16.5489L23.4714 17.843L30.6667 25.0972L24.2558 31.4999L16.9923 24.2798L10.8542 30.4442H5.05712ZM13.139 16.5829L15.7306 13.9946L14.0938 12.3599L12.4569 13.9605L10.5473 12.0533L12.15 10.4186L10.4109 8.71576L7.85337 11.3041L13.139 16.5829ZM24.2217 27.6515L26.8133 25.0631L25.0742 23.3603L23.4714 24.961L21.5277 23.0538L23.1645 21.419L21.4936 19.7843L18.902 22.3726L24.2217 27.6515Z" fill="#F9B501"/>
</svg>
