<svg width="17" height="17" viewBox="0 0 17 17" fill="none" xmlns="http://www.w3.org/2000/svg">
    <path d="M15.1943 16.6378C15.4546 16.8982 15.8767 16.8982 16.1371 16.6378C16.3974 16.3775 16.3974 15.9554 16.1371 15.695L15.1943 16.6378ZM12.4108 7.53897C12.4108 10.5061 10.0054 12.9115 7.03824 12.9115V14.2449C10.7418 14.2449 13.7441 11.2425 13.7441 7.53897H12.4108ZM7.03824 12.9115C4.07106 12.9115 1.66569 10.5061 1.66569 7.53897H0.332357C0.332357 11.2425 3.33468 14.2449 7.03824 14.2449V12.9115ZM1.66569 7.53897C1.66569 4.57179 4.07106 2.16642 7.03824 2.16642V0.833089C3.33468 0.833089 0.332357 3.83541 0.332357 7.53897H1.66569ZM7.03824 2.16642C10.0054 2.16642 12.4108 4.57179 12.4108 7.53897H13.7441C13.7441 3.83541 10.7418 0.833089 7.03824 0.833089V2.16642ZM10.8806 12.3241L15.1943 16.6378L16.1371 15.695L11.8234 11.3813L10.8806 12.3241Z" fill="#919BA7"/>
</svg>
