<svg width="current" height="current" viewBox="current" fill="none" xmlns="http://www.w3.org/2000/svg">
<path d="M17.8333 3.83325C17.3027 3.83325 16.772 4.1708 15.7106 4.84591L16.4302 7.59215C12.7697 7.81857 8.33151 8.89992 7.39751 10.8375H28.2682C27.803 9.87359 26.4709 9.12152 24.7985 8.5811V6.78684H23.6045V8.24389C22.198 7.8973 20.6592 7.68017 19.2365 7.59215L19.9561 4.84591C18.8947 4.1708 18.364 3.83325 17.8333 3.83325ZM7.21973 12.3565V13.5379H4.5V15.0569H7.21973V27.7995C7.21973 29.1497 8.28109 30.4999 9.34245 30.4999H26.3242C27.3856 30.4999 28.4469 29.1497 28.4469 27.7995V15.0569H31.1667V13.5379H28.4469V12.3565H7.21973Z" fill="current"/>
</svg>
