<svg width="36" height="34" viewBox="0 0 36 34" fill="none" xmlns="http://www.w3.org/2000/svg">
<path d="M10.6109 22.1666C11.2003 22.1666 11.7655 22.4007 12.1822 22.8175C12.599 23.2342 12.8331 23.7995 12.8331 24.3888C12.8331 24.9782 12.599 25.5434 12.1822 25.9602C11.7655 26.3769 11.2003 26.6111 10.6109 26.6111C10.0215 26.6111 9.45629 26.3769 9.03955 25.9602C8.6228 25.5434 8.38867 24.9782 8.38867 24.3888C8.38867 23.7995 8.6228 23.2342 9.03955 22.8175C9.45629 22.4007 10.0215 22.1666 10.6109 22.1666ZM17.8331 22.1666C18.4225 22.1666 18.9877 22.4007 19.4045 22.8175C19.8212 23.2342 20.0553 23.7995 20.0553 24.3888C20.0553 24.9782 19.8212 25.5434 19.4045 25.9602C18.9877 26.3769 18.4225 26.6111 17.8331 26.6111C17.2437 26.6111 16.6785 26.3769 16.2618 25.9602C15.845 25.5434 15.6109 24.9782 15.6109 24.3888C15.6109 23.7995 15.845 23.2342 16.2618 22.8175C16.6785 22.4007 17.2437 22.1666 17.8331 22.1666ZM25.0553 22.1666C25.6447 22.1666 26.2099 22.4007 26.6267 22.8175C27.0434 23.2342 27.2776 23.7995 27.2776 24.3888C27.2776 24.9782 27.0434 25.5434 26.6267 25.9602C26.2099 26.3769 25.6447 26.6111 25.0553 26.6111C24.466 26.6111 23.9007 26.3769 23.484 25.9602C23.0672 25.5434 22.8331 24.9782 22.8331 24.3888C22.8331 23.7995 23.0672 23.2342 23.484 22.8175C23.9007 22.4007 24.466 22.1666 25.0553 22.1666ZM10.6109 14.9444C11.2003 14.9444 11.7655 15.1785 12.1822 15.5953C12.599 16.012 12.8331 16.5772 12.8331 17.1666C12.8331 17.756 12.599 18.3212 12.1822 18.738C11.7655 19.1547 11.2003 19.3888 10.6109 19.3888C10.0215 19.3888 9.45629 19.1547 9.03955 18.738C8.6228 18.3212 8.38867 17.756 8.38867 17.1666C8.38867 16.5772 8.6228 16.012 9.03955 15.5953C9.45629 15.1785 10.0215 14.9444 10.6109 14.9444ZM17.8331 14.9444C18.4225 14.9444 18.9877 15.1785 19.4045 15.5953C19.8212 16.012 20.0553 16.5772 20.0553 17.1666C20.0553 17.756 19.8212 18.3212 19.4045 18.738C18.9877 19.1547 18.4225 19.3888 17.8331 19.3888C17.2437 19.3888 16.6785 19.1547 16.2618 18.738C15.845 18.3212 15.6109 17.756 15.6109 17.1666C15.6109 16.5772 15.845 16.012 16.2618 15.5953C16.6785 15.1785 17.2437 14.9444 17.8331 14.9444ZM25.0553 14.9444C25.6447 14.9444 26.2099 15.1785 26.6267 15.5953C27.0434 16.012 27.2776 16.5772 27.2776 17.1666C27.2776 17.756 27.0434 18.3212 26.6267 18.738C26.2099 19.1547 25.6447 19.3888 25.0553 19.3888C24.466 19.3888 23.9007 19.1547 23.484 18.738C23.0672 18.3212 22.8331 17.756 22.8331 17.1666C22.8331 16.5772 23.0672 16.012 23.484 15.5953C23.9007 15.1785 24.466 14.9444 25.0553 14.9444ZM10.6109 7.72217C11.2003 7.72217 11.7655 7.95629 12.1822 8.37304C12.599 8.78979 12.8331 9.35502 12.8331 9.94439C12.8331 10.5338 12.599 11.099 12.1822 11.5157C11.7655 11.9325 11.2003 12.1666 10.6109 12.1666C10.0215 12.1666 9.45629 11.9325 9.03955 11.5157C8.6228 11.099 8.38867 10.5338 8.38867 9.94439C8.38867 9.35502 8.6228 8.78979 9.03955 8.37304C9.45629 7.95629 10.0215 7.72217 10.6109 7.72217ZM17.8331 7.72217C18.4225 7.72217 18.9877 7.95629 19.4045 8.37304C19.8212 8.78979 20.0553 9.35502 20.0553 9.94439C20.0553 10.5338 19.8212 11.099 19.4045 11.5157C18.9877 11.9325 18.4225 12.1666 17.8331 12.1666C17.2437 12.1666 16.6785 11.9325 16.2618 11.5157C15.845 11.099 15.6109 10.5338 15.6109 9.94439C15.6109 9.35502 15.845 8.78979 16.2618 8.37304C16.6785 7.95629 17.2437 7.72217 17.8331 7.72217ZM25.0553 7.72217C25.6447 7.72217 26.2099 7.95629 26.6267 8.37304C27.0434 8.78979 27.2776 9.35502 27.2776 9.94439C27.2776 10.5338 27.0434 11.099 26.6267 11.5157C26.2099 11.9325 25.6447 12.1666 25.0553 12.1666C24.466 12.1666 23.9007 11.9325 23.484 11.5157C23.0672 11.099 22.8331 10.5338 22.8331 9.94439C22.8331 9.35502 23.0672 8.78979 23.484 8.37304C23.9007 7.95629 24.466 7.72217 25.0553 7.72217Z" fill="#F9B501"/>
</svg>
