<svg width="current" height="current" viewBox="current" fill="none" xmlns="http://www.w3.org/2000/svg">
<path d="M20.2331 23.8965L28.322 32.4999L31.1667 29.4027L23.0777 20.7993L20.2331 23.8965ZM25.2482 16.4403C24.7224 16.4403 24.1562 16.3686 23.7113 16.1678L8.35575 32.4282L5.51112 29.4027L15.501 18.7918L13.1148 16.2395L12.1441 17.2432L10.1892 15.2214V19.3224L9.24553 20.3261L4.5 15.2214L5.44371 14.2177H9.23205L7.34462 12.1959L12.1441 7.09123C12.5169 6.69255 12.9602 6.37617 13.4484 6.16028C13.9365 5.94439 14.46 5.83325 14.9887 5.83325C15.5174 5.83325 16.0409 5.94439 16.5291 6.16028C17.0172 6.37617 17.4605 6.69255 17.8333 7.09123L14.9887 10.1885L16.8896 12.1959L15.9324 13.214L18.3456 15.7663L20.7993 13.0706C20.6105 12.5974 20.5297 11.9952 20.5297 11.4646C20.5243 10.8026 20.6425 10.1461 20.8774 9.53302C21.1123 8.91995 21.4592 8.36255 21.8981 7.8931C22.337 7.42365 22.8591 7.05149 23.4341 6.79816C24.0092 6.54483 24.6258 6.41538 25.2482 6.4173C26.0436 6.4173 26.7447 6.61805 27.3783 7.01954L23.7787 10.848L25.801 12.9989L29.4006 9.17039C29.7781 9.84432 29.9668 10.5613 29.9668 11.4646C29.9668 14.2177 27.8771 16.4403 25.2482 16.4403Z" fill="current"/>
</svg>
