<svg width="18" height="21" viewBox="0 0 18 21" fill="none" xmlns="http://www.w3.org/2000/svg">
<g clip-path="url(#clip0_2622_11097)">
<path d="M10.333 1.33301C8.47714 1.33521 6.69788 2.10855 5.38559 3.48335C4.07329 4.85815 3.33511 6.72215 3.33301 8.66641C3.33301 14.9415 9.69664 19.6807 9.96789 19.879C10.0749 19.9576 10.2024 19.9997 10.333 19.9997C10.4636 19.9997 10.5911 19.9576 10.6981 19.879C10.9694 19.6807 17.333 14.9415 17.333 8.66641C17.3309 6.72215 16.5927 4.85815 15.2804 3.48335C13.9681 2.10855 12.1889 1.33521 10.333 1.33301ZM10.333 5.99972C10.8365 5.99972 11.3286 6.15612 11.7472 6.44914C12.1658 6.74216 12.492 7.15864 12.6847 7.64591C12.8774 8.13319 12.9278 8.66937 12.8296 9.18666C12.7313 9.70395 12.4889 10.1791 12.1329 10.5521C11.7769 10.925 11.3234 11.179 10.8296 11.2819C10.3358 11.3848 9.82403 11.332 9.3589 11.1301C8.89378 10.9283 8.49624 10.5865 8.21654 10.1479C7.93684 9.70941 7.78755 9.19384 7.78755 8.66641C7.78755 7.95916 8.05573 7.28088 8.5331 6.78078C9.01046 6.28068 9.65791 5.99972 10.333 5.99972Z" fill="#333333"/>
</g>
<defs>
<clipPath id="clip0_2622_11097">
<rect width="16.6667" height="20" fill="white" transform="translate(0.666626 0.333008)"/>
</clipPath>
</defs>
</svg>
