<svg width="24" height="25" viewBox="0 0 24 25" fill="none" xmlns="http://www.w3.org/2000/svg">
<path d="M12 12.1665C11.337 12.1665 10.7011 11.9031 10.2322 11.4343C9.76339 10.9654 9.5 10.3295 9.5 9.6665C9.5 9.00346 9.76339 8.36758 10.2322 7.89874C10.7011 7.4299 11.337 7.1665 12 7.1665C12.663 7.1665 13.2989 7.4299 13.7678 7.89874C14.2366 8.36758 14.5 9.00346 14.5 9.6665C14.5 9.99481 14.4353 10.3199 14.3097 10.6232C14.1841 10.9265 13.9999 11.2021 13.7678 11.4343C13.5356 11.6664 13.26 11.8506 12.9567 11.9762C12.6534 12.1018 12.3283 12.1665 12 12.1665ZM12 2.6665C10.1435 2.6665 8.36301 3.404 7.05025 4.71676C5.7375 6.02951 5 7.80999 5 9.6665C5 14.9165 12 22.6665 12 22.6665C12 22.6665 19 14.9165 19 9.6665C19 7.80999 18.2625 6.02951 16.9497 4.71676C15.637 3.404 13.8565 2.6665 12 2.6665Z" fill="#F9B501"/>
</svg>
