<svg width="48" height="47" viewBox="0 0 48 47" fill="none" xmlns="http://www.w3.org/2000/svg">
<path fill-rule="evenodd" clip-rule="evenodd" d="M15.8126 19.5087C14.6996 21.093 13.132 22.129 11.4137 22.4159C9.69535 22.7028 7.94875 22.2201 6.51245 21.0614C5.07615 19.9028 4.05247 18.1506 3.63985 16.1447C3.22724 14.1389 3.45509 12.0221 4.27923 10.2047C5.10337 8.38742 6.4651 6.99903 8.10042 6.30872C9.73574 5.61841 11.5282 5.67535 13.1302 6.46852C14.7323 7.26169 16.0298 8.73457 16.7713 10.6016C17.5128 12.4687 17.6455 14.5969 17.1435 16.5738L19.2641 18.0312C19.4364 18.1495 19.5855 18.3101 19.7016 18.5023C19.8176 18.6946 19.8979 18.9141 19.9371 19.1461C19.9763 19.3782 19.9735 19.6176 19.9289 19.8482C19.8844 20.0789 19.799 20.2957 19.6785 20.484L19.6673 20.4996C19.4471 20.8441 19.123 21.0732 18.7634 21.1383C18.4039 21.2034 18.0371 21.0994 17.7409 20.8484C17.6727 20.7911 17.6023 20.7377 17.5299 20.6884L15.8126 19.5087ZM6.80207 11.666C7.34129 10.5512 8.22085 9.72664 9.25781 9.36393C10.2948 9.00122 11.4093 9.12825 12.3696 9.71859C13.3298 10.3089 14.0619 11.3171 14.4136 12.5335C14.7652 13.7499 14.7094 15.0808 14.2576 16.2494C14.1575 16.4028 14.0804 16.5757 14.0299 16.7604C13.4623 17.9012 12.5372 18.7268 11.4581 19.0558C10.379 19.3847 9.23429 19.19 8.27582 18.5145C7.31735 17.8389 6.62362 16.7378 6.34724 15.4535C6.07085 14.1692 6.23446 12.8068 6.80207 11.666ZM25.5567 17.5469C24.0098 18.1086 22.6095 19.1324 21.4894 20.5209C20.3692 21.9093 19.5665 23.616 19.1577 25.4784C18.9691 26.3382 18.8627 27.2336 18.8497 28.1489C18.8419 28.6914 18.7162 29.2223 18.4849 29.6899C18.2537 30.1574 17.9247 30.5458 17.5299 30.8172L15.7379 32.048C14.6036 30.4852 13.0222 29.4793 11.3002 29.2253C9.57825 28.9713 7.83836 29.4873 6.41788 30.6734C4.9974 31.8594 3.99752 33.6309 3.61208 35.6445C3.22665 37.6581 3.48311 39.7703 4.33177 41.5716C5.18042 43.3729 6.56079 44.735 8.20529 45.3939C9.84978 46.0527 11.6412 45.9614 13.2324 45.1375C14.8235 44.3137 16.1009 42.816 16.817 40.9349C17.5331 39.0538 17.6368 36.9232 17.1081 34.9563L42.7358 17.3469C42.9757 17.1821 43.169 16.9364 43.2915 16.6408C43.414 16.3452 43.46 16.013 43.4239 15.6863C43.3877 15.3595 43.2709 15.0528 43.0883 14.8051C42.9057 14.5573 42.6655 14.3795 42.398 14.2943L40.899 13.8166C39.1251 13.2505 37.2532 13.2889 35.4968 13.9277L25.5567 17.5469ZM8.34022 33.1656C7.8587 33.4914 7.43609 33.9274 7.09672 34.4484C6.75735 34.9694 6.50792 35.5652 6.36279 36.2014C6.21767 36.8376 6.17971 37.5017 6.2511 38.1555C6.3225 38.8092 6.50184 39.4397 6.77879 40.0107C7.05575 40.5816 7.42486 41.0817 7.86486 41.4821C8.30486 41.8826 8.80707 42.1755 9.34258 42.344C9.87808 42.5125 10.4363 42.5533 10.9851 42.4639C11.5339 42.3746 12.0624 42.157 12.5403 41.8236C13.4971 41.156 14.1932 40.0651 14.4767 38.7889C14.7601 37.5127 14.608 36.1549 14.0534 35.0117C13.4989 33.8685 12.5869 33.0328 11.5166 32.6869C10.4462 32.3411 9.30438 32.5131 8.34022 33.1656ZM23.0404 27.4957C23.4117 27.4957 23.7678 27.3202 24.0304 27.0077C24.2929 26.6952 24.4404 26.2714 24.4404 25.8295C24.4404 25.3875 24.2929 24.9637 24.0304 24.6512C23.7678 24.3387 23.4117 24.1632 23.0404 24.1632C22.6691 24.1632 22.313 24.3387 22.0504 24.6512C21.7879 24.9637 21.6404 25.3875 21.6404 25.8295C21.6404 26.2714 21.7879 26.6952 22.0504 27.0077C22.313 27.3202 22.6691 27.4957 23.0404 27.4957Z" fill="#F9B501"/>
<path d="M31.2016 27.1959C31.4144 27.0496 31.6558 26.9727 31.9016 26.9727C32.1474 26.9727 32.3888 27.0496 32.6016 27.1959L42.7377 34.161C42.9775 34.3259 43.1708 34.5719 43.2932 34.8676C43.4155 35.1633 43.4614 35.4956 43.425 35.8224C43.3887 36.1492 43.2717 36.4558 43.0889 36.7035C42.906 36.9511 42.6656 37.1287 42.398 37.2136L40.9009 37.6913C39.1268 38.2567 37.2549 38.2175 35.4987 37.578L25.8909 34.081C25.6299 33.9863 25.3979 33.8028 25.2233 33.5532C25.0487 33.3036 24.9393 32.9988 24.9083 32.6761C24.8774 32.3535 24.9263 32.0271 25.0492 31.7371C25.172 31.4471 25.3633 31.2062 25.5997 31.0439L31.2016 27.1959Z" fill="#F9B501"/>
</svg>
