<svg width="31" height="68" viewBox="0 0 31 68" fill="none" xmlns="http://www.w3.org/2000/svg">
<g clip-path="url(#clip0_2581_10894)">
<path d="M1.40983 59.3122C0.715386 58.6177 0.368164 57.7955 0.368164 56.8455C0.368164 55.8955 0.715386 55.0742 1.40983 54.3816L21.7571 34.0344L1.34039 13.6177C0.692238 12.9696 0.368164 12.1594 0.368164 11.1872C0.368164 10.215 0.715386 9.38162 1.40983 8.68717C2.10428 7.99273 2.9265 7.64551 3.8765 7.64551C4.8265 7.64551 5.64779 7.99273 6.34039 8.68717L29.6737 32.09C29.9515 32.3677 30.1487 32.6687 30.2654 32.9927C30.3821 33.3168 30.4395 33.664 30.4376 34.0344C30.4376 34.4048 30.3793 34.752 30.2626 35.0761C30.1459 35.4001 29.9496 35.7011 29.6737 35.9788L6.27094 59.3816C5.62279 60.0298 4.82372 60.3538 3.87372 60.3538C2.92372 60.3538 2.10242 60.0066 1.40983 59.3122Z" fill="#F9B501"/>
</g>
<defs>
<clipPath id="clip0_2581_10894">
<rect width="30" height="66.0417" fill="white" transform="translate(0.402832 0.979004)"/>
</clipPath>
</defs>
</svg>
