<svg width="24" height="25" viewBox="0 0 24 25" fill="none" xmlns="http://www.w3.org/2000/svg">
<path d="M5 19.6667H19V10.4917L14.175 5.66675H5V19.6667ZM5 21.6667C4.45 21.6667 3.979 21.4708 3.587 21.0788C3.195 20.6868 2.99934 20.2161 3 19.6667V5.66675C3 5.11675 3.196 4.64575 3.588 4.25375C3.98 3.86175 4.45067 3.66608 5 3.66675H15L21 9.66675V19.6667C21 20.2167 20.804 20.6878 20.412 21.0798C20.02 21.4718 19.5493 21.6674 19 21.6667H5ZM7 17.6667H17V15.6667H7V17.6667ZM7 13.6667H17V11.6667H7V13.6667ZM7 9.66675H14V7.66675H7V9.66675Z" fill="#F9B501"/>
</svg>
