<svg width="33" height="40" viewBox="0 0 33 40" fill="none" xmlns="http://www.w3.org/2000/svg">
<path fill-rule="evenodd" clip-rule="evenodd" d="M11.7503 15.9528C11.0083 17.009 9.96322 17.6997 8.81768 17.8909C7.67215 18.0822 6.50774 17.7604 5.55021 16.988C4.59268 16.2155 3.91022 15.0475 3.63515 13.7102C3.36007 12.3729 3.51197 10.9617 4.0614 9.75018C4.61083 8.53863 5.51864 7.61304 6.60886 7.15283C7.69907 6.69263 8.89402 6.73059 9.96206 7.25937C11.0301 7.78815 11.8951 8.77007 12.3895 10.0148C12.8838 11.2595 12.9722 12.6783 12.6376 13.9962L14.0513 14.9678C14.1662 15.0467 14.2656 15.1538 14.3429 15.2819C14.4203 15.4101 14.4739 15.5564 14.5 15.7111C14.5261 15.8658 14.5243 16.0254 14.4945 16.1792C14.4648 16.333 14.4079 16.4775 14.3276 16.603L14.3201 16.6134C14.1733 16.8431 13.9572 16.9958 13.7175 17.0392C13.4778 17.0826 13.2333 17.0133 13.0358 16.8459C12.9904 16.8078 12.9435 16.7722 12.8952 16.7393L11.7503 15.9528ZM5.74329 10.7244C6.10277 9.98113 6.68914 9.43145 7.38045 9.18964C8.07175 8.94784 8.81477 9.03252 9.45495 9.42608C10.0951 9.81964 10.5832 10.4918 10.8176 11.3027C11.0521 12.1136 11.0148 13.0009 10.7137 13.78C10.6469 13.8822 10.5955 13.9975 10.5618 14.1206C10.1834 14.8811 9.56669 15.4316 8.8473 15.6509C8.1279 15.8702 7.36477 15.7404 6.72579 15.29C6.08681 14.8396 5.62432 14.1056 5.44007 13.2494C5.25581 12.3931 5.36489 11.4849 5.74329 10.7244ZM18.2464 14.645C17.2151 15.0194 16.2816 15.702 15.5348 16.6276C14.788 17.5532 14.2529 18.691 13.9804 19.9326C13.8547 20.5058 13.7837 21.1027 13.775 21.713C13.7698 22.0746 13.6861 22.4285 13.5319 22.7403C13.3777 23.052 13.1584 23.3109 12.8952 23.4918L11.7005 24.3124C10.9443 23.2705 9.89007 22.5999 8.74207 22.4305C7.59408 22.2612 6.43415 22.6052 5.48716 23.3959C4.54018 24.1866 3.87359 25.3676 3.61663 26.71C3.35967 28.0524 3.53065 29.4605 4.09642 30.6614C4.66219 31.8623 5.58244 32.7704 6.67877 33.2096C7.7751 33.6488 8.9694 33.5879 10.0301 33.0387C11.0909 32.4895 11.9425 31.491 12.4199 30.237C12.8973 28.9829 12.9664 27.5625 12.6139 26.2512L29.6991 14.5116C29.859 14.4018 29.9879 14.238 30.0696 14.0409C30.1512 13.8438 30.1819 13.6224 30.1578 13.4045C30.1337 13.1867 30.0559 12.9822 29.9341 12.8171C29.8124 12.6519 29.6522 12.5334 29.4739 12.4766L28.4746 12.1581C27.292 11.7807 26.0441 11.8063 24.8731 12.2322L18.2464 14.645ZM6.76872 25.0574C6.44771 25.2746 6.16597 25.5653 5.93973 25.9126C5.71348 26.26 5.54719 26.6572 5.45044 27.0813C5.35369 27.5054 5.32838 27.9482 5.37598 28.384C5.42358 28.8198 5.54313 29.2402 5.72777 29.6208C5.91241 30.0014 6.15848 30.3348 6.45182 30.6018C6.74515 30.8687 7.07996 31.064 7.43696 31.1763C7.79396 31.2887 8.16611 31.3159 8.53198 31.2563C8.89784 31.1968 9.2502 31.0517 9.56876 30.8294C10.2066 30.3844 10.6707 29.6571 10.8597 28.8063C11.0487 27.9555 10.9472 27.0503 10.5775 26.2881C10.2078 25.526 9.59986 24.9689 8.88629 24.7383C8.17272 24.5077 7.41149 24.6224 6.76872 25.0574ZM16.5688 21.2775C16.8164 21.2775 17.0538 21.1605 17.2288 20.9522C17.4039 20.7438 17.5022 20.4613 17.5022 20.1667C17.5022 19.872 17.4039 19.5895 17.2288 19.3812C17.0538 19.1728 16.8164 19.0558 16.5688 19.0558C16.3213 19.0558 16.0839 19.1728 15.9089 19.3812C15.7338 19.5895 15.6355 19.872 15.6355 20.1667C15.6355 20.4613 15.7338 20.7438 15.9089 20.9522C16.0839 21.1605 16.3213 21.2775 16.5688 21.2775Z" fill="#F9B501"/>
<path d="M22.0096 21.0775C22.1515 20.98 22.3125 20.9287 22.4763 20.9287C22.6401 20.9287 22.8011 20.98 22.943 21.0775L29.7004 25.7209C29.8603 25.8309 29.9891 25.9948 30.0707 26.192C30.1523 26.3892 30.1828 26.6107 30.1586 26.8286C30.1344 27.0464 30.0564 27.2508 29.9345 27.4159C29.8126 27.581 29.6523 27.6994 29.4739 27.756L28.4758 28.0745C27.2931 28.4514 26.0452 28.4253 24.8744 27.9989L18.4692 25.6676C18.2952 25.6044 18.1405 25.4822 18.0241 25.3158C17.9077 25.1494 17.8347 24.9461 17.8141 24.731C17.7935 24.5159 17.8261 24.2983 17.908 24.105C17.9899 23.9117 18.1175 23.7511 18.275 23.6429L22.0096 21.0775Z" fill="#F9B501"/>
</svg>
