<svg width="22" height="20" viewBox="0 0 22 20" fill="none" xmlns="http://www.w3.org/2000/svg">
<path d="M5.33329 0.805664V2.41678H4.4444C3.45774 2.41678 2.66663 3.13372 2.66663 4.02789V15.3057C2.66663 15.733 2.85393 16.1427 3.18733 16.4449C3.52072 16.747 3.97291 16.9168 4.4444 16.9168H9.86663C10.9866 17.9157 12.5244 18.5279 14.2222 18.5279C17.6622 18.5279 20.4444 16.0065 20.4444 12.889C20.4444 11.3504 19.7688 9.95678 18.6666 8.94178V4.02789C18.6666 3.60059 18.4793 3.1908 18.1459 2.88866C17.8125 2.58652 17.3603 2.41678 16.8888 2.41678H16V0.805664H14.2222V2.41678H7.11107V0.805664M4.4444 4.02789H16.8888V5.639H4.4444M4.4444 7.25011H16.8888V7.78983C16.08 7.44344 15.1733 7.25011 14.2222 7.25011C10.7822 7.25011 7.99996 9.7715 7.99996 12.889C7.99996 13.7509 8.21329 14.5726 8.59552 15.3057H4.4444M14.2222 8.98205C16.6044 8.98205 18.5333 10.7301 18.5333 12.889C18.5333 15.0479 16.6044 16.7959 14.2222 16.7959C11.84 16.7959 9.91107 15.0479 9.91107 12.889C9.91107 10.7301 11.84 8.98205 14.2222 8.98205ZM13.3333 10.4723V13.4448L16.1688 14.9271L16.8355 13.8798L14.6666 12.744V10.4723H13.3333Z" fill="#333333"/>
</svg>
