<svg width="current" height="current" viewBox="current" fill="none" xmlns="http://www.w3.org/2000/svg">
<path fill-rule="evenodd" clip-rule="evenodd" d="M13.7827 31.0984C9.85867 27.5611 4.5 21.7181 4.5 16.1934C4.5 6.96368 11.8333 3.51743 17.8333 10.6452C23.8333 3.51743 31.1667 6.96368 31.1667 16.1918C31.1667 21.7181 25.8067 27.5611 21.884 31.0984C20.108 32.6984 19.22 33.4999 17.8333 33.4999C16.4467 33.4999 15.5587 32.6999 13.7827 31.0984ZM23.8333 11.9315C24.0985 11.9315 24.3529 12.0554 24.5404 12.2761C24.728 12.4967 24.8333 12.7959 24.8333 13.1079V15.0687H26.5C26.7652 15.0687 27.0196 15.1927 27.2071 15.4133C27.3946 15.6339 27.5 15.9332 27.5 16.2452C27.5 16.5572 27.3946 16.8564 27.2071 17.077C27.0196 17.2977 26.7652 17.4216 26.5 17.4216H24.8333V19.3824C24.8333 19.6944 24.728 19.9936 24.5404 20.2143C24.3529 20.4349 24.0985 20.5589 23.8333 20.5589C23.5681 20.5589 23.3138 20.4349 23.1262 20.2143C22.9387 19.9936 22.8333 19.6944 22.8333 19.3824V17.4216H21.1667C20.9014 17.4216 20.6471 17.2977 20.4596 17.077C20.272 16.8564 20.1667 16.5572 20.1667 16.2452C20.1667 15.9332 20.272 15.6339 20.4596 15.4133C20.6471 15.1927 20.9014 15.0687 21.1667 15.0687H22.8333V13.1079C22.8333 12.7959 22.9387 12.4967 23.1262 12.2761C23.3138 12.0554 23.5681 11.9315 23.8333 11.9315Z" fill="current"/>
</svg>
