<svg width="47" height="47" viewBox="0 0 47 47" fill="none" xmlns="http://www.w3.org/2000/svg">
<path d="M23.7618 3.33325C22.9658 3.33325 22.1698 3.83958 20.5778 4.85224L21.6572 8.97161C16.1663 9.31123 9.5091 10.9333 8.10811 13.8396H39.4141C38.7164 12.3938 36.7183 11.2657 34.2096 10.455V7.76363H32.4186V9.9492C30.3088 9.42933 28.0006 9.10363 25.8665 8.97161L26.9459 4.85224C25.3539 3.83958 24.5579 3.33325 23.7618 3.33325ZM7.84144 16.1181V17.8902H3.76184V20.1687H7.84144V39.2826C7.84144 41.3079 9.43348 43.3333 11.0255 43.3333H36.4982C38.0902 43.3333 39.6822 41.3079 39.6822 39.2826V20.1687H43.7618V17.8902H39.6822V16.1181H7.84144Z" fill="#F9B501"/>
</svg>
