<svg width="20" height="23" viewBox="0 0 20 23" fill="none" xmlns="http://www.w3.org/2000/svg">
<g clip-path="url(#clip0_2618_11253)">
<path d="M11.2133 1.76685C9.06045 1.76927 6.99652 2.61994 5.47425 4.13222C3.95199 5.6445 3.0957 7.6949 3.09326 9.83359C3.09326 16.7362 10.4751 21.9493 10.7897 22.1675C10.9138 22.2538 11.0617 22.3002 11.2133 22.3002C11.3648 22.3002 11.5127 22.2538 11.6368 22.1675C11.9514 21.9493 19.3333 16.7362 19.3333 9.83359C19.3308 7.6949 18.4745 5.6445 16.9523 4.13222C15.43 2.61994 13.3661 1.76927 11.2133 1.76685ZM11.2133 6.90023C11.7973 6.90023 12.3681 7.07227 12.8537 7.39459C13.3393 7.71691 13.7177 8.17504 13.9412 8.71104C14.1647 9.24705 14.2232 9.83685 14.1093 10.4059C13.9953 10.9749 13.7141 11.4976 13.3012 11.9078C12.8882 12.318 12.3621 12.5974 11.7893 12.7106C11.2165 12.8238 10.6228 12.7657 10.0833 12.5437C9.54376 12.3216 9.08261 11.9457 8.75816 11.4633C8.43371 10.9809 8.26053 10.4138 8.26053 9.83359C8.26053 9.05562 8.57162 8.3095 9.12537 7.75939C9.67911 7.20928 10.4302 6.90023 11.2133 6.90023Z" fill="#9E9E9E"/>
</g>
<defs>
<clipPath id="clip0_2618_11253">
<rect width="19.3333" height="22" fill="white" transform="translate(0 0.666748)"/>
</clipPath>
</defs>
</svg>
