<svg width="17" height="17" viewBox="0 0 17 17" fill="none" xmlns="http://www.w3.org/2000/svg">
<path d="M14.8208 1.84547C14.4926 1.51734 14.0475 1.33301 13.5834 1.33301C13.1193 1.33301 12.6743 1.51734 12.3461 1.84547L11.5748 2.6168L14.0494 5.09147L14.8208 4.32013C15.1489 3.99195 15.3332 3.54688 15.3332 3.0828C15.3332 2.61872 15.1489 2.17365 14.8208 1.84547ZM13.3421 5.7988L10.8674 3.32413L5.26742 8.92413C4.85599 9.33536 4.55354 9.84265 4.38742 10.4001L3.85409 12.1901C3.82834 12.2765 3.82642 12.3682 3.84853 12.4556C3.87064 12.543 3.91596 12.6228 3.9797 12.6865C4.04343 12.7503 4.12321 12.7956 4.21059 12.8177C4.29798 12.8398 4.38971 12.8379 4.47609 12.8121L6.26609 12.2788C6.82357 12.1127 7.33086 11.8102 7.74209 11.3988L13.3421 5.7988Z" fill="#333333"/>
<path d="M3.83325 3.83301C3.30282 3.83301 2.79411 4.04372 2.41904 4.41879C2.04397 4.79387 1.83325 5.30257 1.83325 5.83301V12.833C1.83325 13.3634 2.04397 13.8721 2.41904 14.2472C2.79411 14.6223 3.30282 14.833 3.83325 14.833H10.8333C11.3637 14.833 11.8724 14.6223 12.2475 14.2472C12.6225 13.8721 12.8333 13.3634 12.8333 12.833V9.33301C12.8333 9.2004 12.7806 9.07322 12.6868 8.97945C12.593 8.88569 12.4659 8.83301 12.3333 8.83301C12.2006 8.83301 12.0735 8.88569 11.9797 8.97945C11.8859 9.07322 11.8333 9.2004 11.8333 9.33301V12.833C11.8333 13.0982 11.7279 13.3526 11.5404 13.5401C11.3528 13.7277 11.0985 13.833 10.8333 13.833H3.83325C3.56804 13.833 3.31368 13.7277 3.12615 13.5401C2.93861 13.3526 2.83325 13.0982 2.83325 12.833V5.83301C2.83325 5.56779 2.93861 5.31344 3.12615 5.1259C3.31368 4.93836 3.56804 4.83301 3.83325 4.83301H7.33325C7.46586 4.83301 7.59304 4.78033 7.68681 4.68656C7.78057 4.59279 7.83325 4.46562 7.83325 4.33301C7.83325 4.2004 7.78057 4.07322 7.68681 3.97945C7.59304 3.88569 7.46586 3.83301 7.33325 3.83301H3.83325Z" fill="#333333"/>
</svg>
