<svg width="48" height="47" viewBox="0 0 48 47" fill="none" xmlns="http://www.w3.org/2000/svg">
<path d="M28.0833 32.35L40.2168 45.2551L44.4837 40.6093L32.3502 27.7042L28.0833 32.35ZM35.6061 21.1656C34.8174 21.1656 33.968 21.0581 33.3007 20.757L10.2673 45.1476L6.00039 40.6093L20.9852 24.693L17.4058 20.8645L15.9498 22.3701L13.0176 19.3374V25.4888L11.602 26.9944L4.4837 19.3374L5.89928 17.8318H11.5818L8.75064 14.7991L15.9498 7.1421C16.5091 6.54407 17.174 6.0695 17.9062 5.74567C18.6385 5.42183 19.4237 5.25513 20.2168 5.25513C21.0098 5.25513 21.795 5.42183 22.5273 5.74567C23.2596 6.0695 23.9244 6.54407 24.4837 7.1421L20.2168 11.7879L23.0681 14.7991L21.6323 16.3262L25.2522 20.1547L28.9326 16.1111C28.6495 15.4014 28.5282 14.498 28.5282 13.7022C28.5202 12.7092 28.6975 11.7244 29.0498 10.8048C29.4022 9.88518 29.9226 9.04908 30.5809 8.3449C31.2392 7.64073 32.0223 7.08248 32.8849 6.70249C33.7475 6.3225 34.6724 6.12832 35.6061 6.1312C36.7992 6.1312 37.8507 6.43232 38.8012 7.03456L33.4018 12.7773L36.4352 16.0036L41.8346 10.2608C42.4008 11.2717 42.6839 12.3472 42.6839 13.7022C42.6839 17.8318 39.5494 21.1656 35.6061 21.1656Z" fill="#F9B501"/>
</svg>
