<svg width="27" height="27" viewBox="0 0 27 27" fill="none" xmlns="http://www.w3.org/2000/svg">
<path d="M13.3338 13.1667C12.1116 13.1667 11.0653 12.7424 10.1949 11.8938C9.32458 11.0451 8.88939 10.025 8.88939 8.83333C8.88939 7.64167 9.32458 6.62153 10.1949 5.77292C11.0653 4.92431 12.1116 4.5 13.3338 4.5C14.5561 4.5 15.6024 4.92431 16.4727 5.77292C17.3431 6.62153 17.7783 7.64167 17.7783 8.83333C17.7783 10.025 17.3431 11.0451 16.4727 11.8938C15.6024 12.7424 14.5561 13.1667 13.3338 13.1667ZM4.44495 21.8333V18.8C4.44495 18.1861 4.60717 17.6217 4.93161 17.1068C5.25606 16.5918 5.68643 16.1993 6.22272 15.9292C7.37087 15.3694 8.53754 14.9495 9.72272 14.6693C10.9079 14.389 12.1116 14.2493 13.3338 14.25C14.5561 14.25 15.7598 14.3901 16.9449 14.6703C18.1301 14.9506 19.2968 15.3702 20.4449 15.9292C20.982 16.2 21.4127 16.5929 21.7372 17.1078C22.0616 17.6228 22.2235 18.1868 22.2227 18.8V21.8333H4.44495Z" fill="white"/>
</svg>
