<svg width="20" height="20" viewBox="0 0 20 20" fill="none" xmlns="http://www.w3.org/2000/svg">
<path d="M18.9114 17.1314C19.2395 17.496 19.2395 18.0429 18.8749 18.371L17.8541 19.3918C17.526 19.7564 16.9791 19.7564 16.6145 19.3918L13.0051 15.7825C12.8228 15.6002 12.7499 15.3814 12.7499 15.1627V14.5429C11.4374 15.5637 9.83325 16.1471 8.08325 16.1471C3.89054 16.1471 0.499918 12.7564 0.499918 8.56372C0.499918 4.40747 3.89054 0.980386 8.08325 0.980386C12.2395 0.980386 15.6666 4.40747 15.6666 8.56372C15.6666 10.3502 15.0468 11.9543 14.0624 13.2304H14.6458C14.8645 13.2304 15.0833 13.3398 15.2655 13.4856L18.9114 17.1314ZM8.08325 13.2304C10.6353 13.2304 12.7499 11.1523 12.7499 8.56372C12.7499 6.01164 10.6353 3.89705 8.08325 3.89705C5.49471 3.89705 3.41658 6.01164 3.41658 8.56372C3.41658 11.1523 5.49471 13.2304 8.08325 13.2304Z" fill="white"/>
</svg>
