<svg width="154" height="154" viewBox="0 0 154 154" fill="none" xmlns="http://www.w3.org/2000/svg">
<g clip-path="url(#clip0_2575_10857)">
<path d="M148.373 83.7306L89.9589 20.4611C86.6841 16.9139 81.7979 15.3466 77.0712 16.3102L70.1386 17.7321L44.5935 22.9622L44.0972 23.062C43.8455 23.1131 43.599 23.1707 43.3551 23.2361C43.2272 23.2704 43.0969 23.3093 42.9661 23.3487C40.2495 24.1473 37.8822 25.7527 36.1477 27.9069C35.0253 29.2952 34.1639 30.9123 33.643 32.6873L24.1127 65.2175C22.7545 69.861 23.9252 74.8806 27.2108 78.4376L85.6029 141.684C88.5846 144.911 92.5974 146.612 96.6621 146.756C99.9773 146.876 103.33 145.957 106.191 143.979C106.8 143.558 107.389 143.089 107.952 142.573L113.163 137.761L147.479 106.077C153.898 100.152 154.297 90.1459 148.373 83.7306ZM59.1581 57.4124C59.0258 57.6304 58.8948 57.8401 58.7546 58.0435C58.6957 58.134 58.6293 58.2265 58.5646 58.3102C58.3534 58.591 58.1267 58.8592 57.8905 59.1094C57.8105 59.1972 57.7329 59.2803 57.6495 59.3566C57.5695 59.4444 57.4831 59.5258 57.3989 59.598C54.5255 62.2272 50.1738 62.8247 46.6186 60.7723C42.2228 58.2312 40.7201 52.6233 43.2586 48.2326C45.5681 44.2268 50.4348 42.6239 54.6108 44.2984C54.8898 44.4103 55.1729 44.5378 55.4527 44.683C55.5657 44.7482 55.6803 44.8046 55.7984 44.8728C60.188 47.4069 61.6907 53.0148 59.1581 57.4124Z" fill="#E8E8E8"/>
<path d="M85.603 141.684C88.5847 144.911 92.5974 146.613 96.6621 146.756C99.9774 146.876 103.33 145.957 106.191 143.979C106.8 143.558 107.389 143.089 107.952 142.573L113.163 137.761L147.479 106.077C153.898 100.153 154.297 90.1463 148.374 83.731L121.085 54.1739L87.2708 34.6514C86.0307 33.7723 84.6392 33.0885 83.1359 32.6526L76.3349 30.6838L50.8045 23.2949C48.7103 22.689 46.5468 22.6033 44.4776 22.9854L44.1323 23.055C44.0257 23.0773 43.9196 23.1036 43.8134 23.1286C43.679 23.1591 43.5432 23.1883 43.4112 23.2231C43.1734 23.2868 42.9382 23.3603 42.7036 23.4369C42.6084 23.467 42.5143 23.5 42.4203 23.532C40.4309 24.2291 38.592 25.3806 37.0729 26.951L36.1433 27.9122C35.023 29.2994 34.1629 30.9145 33.6427 32.6872L24.1124 65.2174C22.7542 69.8609 23.9249 74.8806 27.2105 78.4376L85.603 141.684ZM43.2583 48.2325C45.5678 44.2267 50.4345 42.6238 54.6105 44.2984C54.8895 44.4103 55.1726 44.5378 55.4524 44.6829C55.5654 44.7482 55.68 44.8046 55.7981 44.8728C60.1882 47.4074 61.6907 53.0147 59.1582 57.4125C59.0259 57.6306 58.8948 57.8403 58.7546 58.0437C58.6958 58.1342 58.6294 58.2267 58.5647 58.3104C58.3535 58.5911 58.1267 58.8593 57.8906 59.1095C57.8105 59.1973 57.733 59.2804 57.6496 59.3567C57.5695 59.4445 57.4831 59.526 57.3989 59.5981C54.5255 62.2274 50.1738 62.8248 46.6187 60.7725C42.2228 58.2314 40.7202 52.6235 43.2583 48.2325Z" fill="url(#paint0_linear_2575_10857)"/>
<path d="M90.2501 38.9184L84.1904 35.2564L61.4423 21.5118C57.0759 18.8749 51.608 18.8656 47.2326 21.4894L18.1631 38.9274C14.0135 41.4152 11.4715 45.899 11.4715 50.7395V136.821C11.4715 145.554 18.5515 152.634 27.2885 152.634H81.0884C89.8212 152.634 96.9009 145.554 96.9009 136.821V50.7078C96.9012 45.8807 94.3769 41.4152 90.2501 38.9184ZM47.6977 56.6276C44.1123 53.0377 44.1123 47.2311 47.6977 43.646C50.9668 40.3769 56.0825 40.0882 59.6813 42.7835C59.9251 42.9641 60.1644 43.163 60.3947 43.375C60.4893 43.4651 60.5843 43.5511 60.6792 43.646C64.2643 47.2311 64.2643 53.038 60.6792 56.6276C60.4986 56.8036 60.3177 56.9752 60.1285 57.1334C60.0473 57.2055 59.9614 57.278 59.8757 57.3412C59.6002 57.558 59.3115 57.7611 59.0177 57.9417C58.9186 58.0049 58.8188 58.0639 58.7197 58.1178C58.6206 58.181 58.5164 58.2352 58.4172 58.2849C54.9583 60.0817 50.6011 59.531 47.6977 56.6276Z" fill="#FDC347"/>
<path d="M96.9013 136.821C96.9013 136.821 96.9013 136.441 96.9013 135.738L43.8576 82.7076C41.7996 81.062 39.0749 80.2378 35.6824 80.2378C28.2305 80.2378 24.5043 83.6707 24.5043 90.5366V102.928C24.5043 106.645 25.6061 109.347 27.7902 111.052L69.3726 152.634H81.0888C89.8213 152.634 96.9013 145.554 96.9013 136.821Z" fill="url(#paint1_linear_2575_10857)"/>
<path d="M71.7615 77.8929C71.0299 77.2792 70.2153 76.9717 69.3151 76.9717C68.0905 76.9717 67.2558 77.4742 66.8108 78.479L36.1846 140C35.9624 140.391 35.8513 140.81 35.8513 141.256C35.8513 142.037 36.16 142.748 36.7784 143.391L46.021 152.634H81.0885C89.8213 152.634 96.901 145.554 96.901 136.821C96.901 136.821 96.901 125.592 96.901 111.603V103.156L71.7615 77.8929Z" fill="url(#paint2_linear_2575_10857)"/>
<path d="M80.7821 110.924C78.7241 109.278 75.9992 108.454 72.607 108.454C65.155 108.454 61.4289 111.887 61.4289 118.753V131.145C61.4289 134.862 62.5307 137.563 64.7148 139.268L78.0802 152.634H81.0882C89.821 152.634 96.9007 145.554 96.9007 136.821C96.9007 136.821 96.9007 132.998 96.9007 127.039L80.7821 110.924Z" fill="url(#paint3_linear_2575_10857)"/>
<path d="M24.5043 102.928V90.536C24.5043 83.6701 28.2305 80.2372 35.6824 80.2372C39.0746 80.2372 41.7999 81.0614 43.8576 82.707C45.9141 84.3541 46.9437 86.9644 46.9437 90.5357V102.928C46.9437 106.5 45.9144 109.11 43.8576 110.756C41.7996 112.403 39.0746 113.226 35.6824 113.226C28.2305 113.226 24.5043 109.793 24.5043 102.928ZM30.449 102.788C30.449 106.008 32.1932 107.617 35.6821 107.617C39.2258 107.617 40.9984 106.008 40.9984 102.788V90.6758C40.9984 87.4576 39.2258 85.8473 35.6821 85.8473C32.1929 85.8473 30.449 87.4576 30.449 90.6758V102.788ZM35.8513 141.256C35.8513 140.81 35.9624 140.391 36.1846 140L66.8112 78.479C67.2562 77.4742 68.0908 76.9717 69.3154 76.9717C70.2153 76.9717 71.0302 77.2792 71.7618 77.8929C72.4932 78.5077 72.8594 79.2612 72.8594 80.1533C72.8594 80.6011 72.7756 81.047 72.6094 81.4929L41.9804 142.763C41.4788 143.823 40.5334 144.354 39.1426 144.354C38.1854 144.354 37.3978 144.032 36.7785 143.391C36.1601 142.749 35.8513 142.037 35.8513 141.256ZM61.4292 131.317V118.831C61.4292 111.913 65.1553 108.454 72.6073 108.454C75.9995 108.454 78.7247 109.285 80.7825 110.944C82.839 112.603 83.8686 115.232 83.8686 118.831V131.317C83.8686 134.918 82.839 137.547 80.7825 139.206C78.7244 140.865 75.9995 141.694 72.6073 141.694C65.155 141.694 61.4292 138.235 61.4292 131.317ZM67.3739 131.201C67.3739 134.457 69.118 136.085 72.607 136.085C76.1507 136.085 77.9233 134.457 77.9233 131.201V118.947C77.9233 115.693 76.1507 114.063 72.607 114.063C69.1177 114.063 67.3739 115.692 67.3739 118.947V131.201Z" fill="url(#paint4_linear_2575_10857)"/>
<path d="M96.901 50.7071V79.9788L61.4271 44.5049C61.1986 44.2081 60.95 43.9194 60.6814 43.6469C60.5852 43.5508 60.4888 43.4666 60.3966 43.3741C60.3325 43.3139 60.2681 43.2576 60.2001 43.2057C60.0318 43.0533 59.8551 42.9132 59.6829 42.785C56.2509 40.2148 51.4439 40.3553 48.1724 43.2102V20.9745C51.953 19.0899 56.3913 19.0462 60.2004 20.846C60.6212 21.0425 61.0383 21.2668 61.4432 21.5118L84.192 35.2555L90.2498 38.9199C94.3752 41.4137 96.901 45.8798 96.901 50.7071Z" fill="url(#paint5_linear_2575_10857)"/>
<path d="M54.1863 54.1389C50.865 54.1389 48.1724 51.4463 48.1724 48.1251V6.01384C48.1724 2.69262 50.865 0 54.1863 0C57.5075 0 60.2001 2.69262 60.2001 6.01384V48.1248C60.2004 51.4463 57.5075 54.1389 54.1863 54.1389Z" fill="url(#paint6_linear_2575_10857)"/>
</g>
<defs>
<linearGradient id="paint0_linear_2575_10857" x1="70.4683" y1="15.9732" x2="138.603" y2="116.731" gradientUnits="userSpaceOnUse">
<stop stop-color="white"/>
<stop offset="1" stop-color="white" stop-opacity="0"/>
</linearGradient>
<linearGradient id="paint1_linear_2575_10857" x1="56.7049" y1="117.797" x2="31.625" y2="92.7173" gradientUnits="userSpaceOnUse">
<stop stop-color="#FDC347" stop-opacity="0"/>
<stop offset="1" stop-color="#F59500"/>
</linearGradient>
<linearGradient id="paint2_linear_2575_10857" x1="83.3336" y1="139.708" x2="44.7215" y2="101.096" gradientUnits="userSpaceOnUse">
<stop stop-color="#FDC347" stop-opacity="0"/>
<stop offset="1" stop-color="#F59500"/>
</linearGradient>
<linearGradient id="paint3_linear_2575_10857" x1="100.903" y1="153.294" x2="62.685" y2="115.073" gradientUnits="userSpaceOnUse">
<stop stop-color="#FDC347" stop-opacity="0"/>
<stop offset="1" stop-color="#F59500"/>
</linearGradient>
<linearGradient id="paint4_linear_2575_10857" x1="54.1852" y1="92.6927" x2="54.1852" y2="167.918" gradientUnits="userSpaceOnUse">
<stop stop-color="white"/>
<stop offset="1" stop-color="#E2EDF2"/>
</linearGradient>
<linearGradient id="paint5_linear_2575_10857" x1="93.1563" y1="58.5292" x2="31.8784" y2="24.4118" gradientUnits="userSpaceOnUse">
<stop stop-color="#FDC347"/>
<stop offset="1" stop-color="#F59500"/>
</linearGradient>
<linearGradient id="paint6_linear_2575_10857" x1="43.9706" y1="24.2402" x2="62.0098" y2="49.6078" gradientUnits="userSpaceOnUse">
<stop stop-color="#FF7A7A"/>
<stop offset="1" stop-color="#F75900"/>
</linearGradient>
<clipPath id="clip0_2575_10857">
<rect width="153.333" height="153.333" fill="white"/>
</clipPath>
</defs>
</svg>
