<svg width="16" height="17" viewBox="0 0 16 17" fill="none" xmlns="http://www.w3.org/2000/svg">
<path d="M10.8 3.51405C10.8 4.04029 10.6338 4.54573 10.3368 4.9196C9.65334 5.78055 8.99051 6.67828 8.28148 7.50799C8.11901 7.69541 7.8612 7.68859 7.70566 7.49268L5.66306 4.9196C5.04566 4.14185 5.04566 2.88624 5.66306 2.1085C6.28654 1.32311 7.30225 1.32311 7.92567 2.1085L7.99994 2.20202L8.07414 2.10855C8.37311 1.73179 8.78023 1.51929 9.20549 1.51929C9.63081 1.51929 10.0379 1.73177 10.3368 2.1085C10.6338 2.48242 10.8 2.98783 10.8 3.51405Z" stroke="#F17228" stroke-width="1.33333" stroke-linejoin="round"/>
<path d="M12.2 15.5192L14.877 12.173C14.9558 12.0745 15 11.941 15 11.8018V7.20677C15 6.4819 14.5299 5.89429 13.95 5.89429C13.3701 5.89429 12.9 6.4819 12.9 7.20677V11.1442" stroke="#F17228" stroke-width="1.33333" stroke-linecap="round" stroke-linejoin="round"/>
<path d="M12.2 12.0194L12.8007 11.2685C12.8643 11.189 12.9 11.0812 12.9 10.9688C12.9 10.8083 12.8274 10.6616 12.7125 10.5897L12.4025 10.396C11.8636 10.0591 11.2126 10.1912 10.7865 10.7238L10.1601 11.5068C9.89749 11.835 9.75 12.2801 9.75 12.7442V15.5193" stroke="#F17228" stroke-width="1.33333" stroke-linecap="round" stroke-linejoin="round"/>
<path d="M3.8 15.5192L1.12302 12.173C1.04425 12.0745 1 11.941 1 11.8018V7.20677C1 6.4819 1.4701 5.89429 2.05 5.89429C2.6299 5.89429 3.1 6.4819 3.1 7.20677V11.1442" stroke="#F17228" stroke-width="1.33333" stroke-linecap="round" stroke-linejoin="round"/>
<path d="M3.80004 12.0194L3.19935 11.2685C3.13576 11.189 3.10004 11.0812 3.10004 10.9688C3.10004 10.8083 3.1726 10.6616 3.28747 10.5897L3.59751 10.396C4.13649 10.0591 4.78745 10.1912 5.21355 10.7238L5.83999 11.5068C6.10254 11.835 6.25004 12.2801 6.25004 12.7442V15.5193" stroke="#F17228" stroke-width="1.33333" stroke-linecap="round" stroke-linejoin="round"/>
</svg>
