<svg width="36" height="34" viewBox="0 0 36 34" fill="none" xmlns="http://www.w3.org/2000/svg">
<path d="M31.1597 17.1379C31.1597 18.0753 30.4652 18.8095 29.6781 18.8095H28.1965L28.2289 27.1516C28.2381 29.0002 26.9093 30.4999 25.2657 30.4999H10.4311C8.79666 30.4999 7.46784 29.0054 7.46784 27.1672V18.8095H5.98161C5.1482 18.8095 4.5 18.0805 4.5 17.1379C4.5 16.6693 4.6389 16.2527 4.963 15.8882L16.8344 4.24984C17.1585 3.88533 17.5289 3.83325 17.853 3.83325C18.1771 3.83325 18.5475 3.9374 18.8253 4.19776L23.7609 9.07702V7.16593C23.7609 6.24424 24.423 5.49959 25.2425 5.49959H26.7241C27.5436 5.49959 28.2057 6.24424 28.2057 7.16593V13.4668L30.6504 15.883C31.0208 16.2475 31.206 16.6641 31.1597 17.1327V17.1379ZM15.9825 13.8313C15.3667 13.8313 14.8713 14.3885 14.8713 15.0811V19.2469C14.8713 19.9395 15.3667 20.4967 15.9825 20.4967H19.6865C20.3023 20.4967 20.7977 19.9395 20.7977 19.2469V15.0811C20.7977 14.3885 20.3023 13.8313 19.6865 13.8313H15.9825Z" fill="#F9B501"/>
</svg>
