<svg width="48" height="47" viewBox="0 0 48 47" fill="none" xmlns="http://www.w3.org/2000/svg">
<path fill-rule="evenodd" clip-rule="evenodd" d="M18.7652 42.2307C12.8792 36.9249 4.84119 28.1602 4.84119 19.8732C4.84119 6.02865 15.8412 0.85928 24.8412 11.551C33.8412 0.85928 44.8412 6.02865 44.8412 19.8709C44.8412 28.1602 36.8012 36.9249 30.9172 42.2307C28.2532 44.6307 26.9212 45.833 24.8412 45.833C22.7612 45.833 21.4292 44.633 18.7652 42.2307ZM33.8412 13.4803C34.239 13.4803 34.6205 13.6663 34.9018 13.9972C35.1832 14.3282 35.3412 14.777 35.3412 15.245V18.1862H37.8412C38.239 18.1862 38.6205 18.3721 38.9018 18.7031C39.1832 19.034 39.3412 19.4829 39.3412 19.9509C39.3412 20.4189 39.1832 20.8678 38.9018 21.1987C38.6205 21.5296 38.239 21.7156 37.8412 21.7156H35.3412V24.6567C35.3412 25.1247 35.1832 25.5736 34.9018 25.9045C34.6205 26.2355 34.239 26.4214 33.8412 26.4214C33.4434 26.4214 33.0618 26.2355 32.7805 25.9045C32.4992 25.5736 32.3412 25.1247 32.3412 24.6567V21.7156H29.8412C29.4434 21.7156 29.0618 21.5296 28.7805 21.1987C28.4992 20.8678 28.3412 20.4189 28.3412 19.9509C28.3412 19.4829 28.4992 19.034 28.7805 18.7031C29.0618 18.3721 29.4434 18.1862 29.8412 18.1862H32.3412V15.245C32.3412 14.777 32.4992 14.3282 32.7805 13.9972C33.0618 13.6663 33.4434 13.4803 33.8412 13.4803Z" fill="#F9B501"/>
</svg>
