<svg width="34" height="68" viewBox="0 0 34 68" fill="none" xmlns="http://www.w3.org/2000/svg">
<path d="M26.0971 59.2779L2.69435 35.9445C2.41657 35.6668 2.21935 35.3658 2.10269 35.0418C1.98602 34.7177 1.92861 34.3705 1.93046 34.0001C1.93046 33.6297 1.9888 33.2825 2.10546 32.9584C2.22213 32.6344 2.41843 32.3334 2.69435 32.0557L26.0971 8.65289C26.7453 8.00474 27.5555 7.68066 28.5277 7.68066C29.4999 7.68066 30.3332 8.02789 31.0277 8.72233C31.7221 9.41678 32.0694 10.227 32.0694 11.1529C32.0694 12.0788 31.7221 12.889 31.0277 13.5834L10.611 34.0001L31.0277 54.4168C31.6758 55.0649 31.9999 55.864 31.9999 56.814C31.9999 57.764 31.6527 58.5853 30.9582 59.2779C30.2638 59.9723 29.4536 60.3196 28.5277 60.3196C27.6018 60.3196 26.7916 59.9723 26.0971 59.2779Z" fill="#F9B501"/>
</svg>
