<svg width="25" height="25" viewBox="0 0 25 25" fill="none" xmlns="http://www.w3.org/2000/svg">
<path d="M12.6665 12.333C11.5665 12.333 10.6248 11.9413 9.8415 11.158C9.05817 10.3747 8.6665 9.43301 8.6665 8.33301C8.6665 7.23301 9.05817 6.29134 9.8415 5.50801C10.6248 4.72467 11.5665 4.33301 12.6665 4.33301C13.7665 4.33301 14.7082 4.72467 15.4915 5.50801C16.2748 6.29134 16.6665 7.23301 16.6665 8.33301C16.6665 9.43301 16.2748 10.3747 15.4915 11.158C14.7082 11.9413 13.7665 12.333 12.6665 12.333ZM4.6665 20.333V17.533C4.6665 16.9663 4.8125 16.4453 5.1045 15.97C5.3965 15.4947 5.78384 15.1323 6.2665 14.883C7.29984 14.3663 8.34984 13.9787 9.4165 13.72C10.4832 13.4613 11.5665 13.3323 12.6665 13.333C13.7665 13.333 14.8498 13.4623 15.9165 13.721C16.9832 13.9797 18.0332 14.367 19.0665 14.883C19.5498 15.133 19.9375 15.4957 20.2295 15.971C20.5215 16.4463 20.6672 16.967 20.6665 17.533V20.333H4.6665Z" fill="#F9B501"/>
</svg>
