<svg width="48" height="47" viewBox="0 0 48 47" fill="none" xmlns="http://www.w3.org/2000/svg">
<path d="M39.1513 18.9905L30.4556 10.3059L33.3712 7.39405C34.1555 6.61074 35.1192 6.21908 36.2623 6.21908C37.4053 6.21908 38.3683 6.61074 39.1513 7.39405L42.0669 10.3059C42.8512 11.0892 43.2433 12.0517 43.2433 13.1933C43.2433 14.3349 42.8512 15.2966 42.0669 16.0786L39.1513 18.9905ZM6.7216 42.6942V34.0096L15.9288 24.8142L5.13593 13.933L14.8034 4.27783L25.6474 15.1591L27.5912 13.2178L36.2868 21.8513L34.3431 23.7925L45.1359 34.6737L35.5196 44.2778L24.6244 33.4477L15.4173 42.6942H6.7216ZM18.8444 21.9024L22.7318 18.0199L20.2766 15.5677L17.8213 17.9688L14.9569 15.108L17.361 12.6559L14.7523 10.1016L10.916 13.9841L18.8444 21.9024ZM35.4684 38.5052L39.3559 34.6227L36.7472 32.0684L34.3431 34.4694L31.4275 31.6086L33.8827 29.1565L31.3763 26.7044L27.4889 30.5869L35.4684 38.5052Z" fill="#F9B501"/>
</svg>
