<svg width="48" height="47" viewBox="0 0 48 47" fill="none" xmlns="http://www.w3.org/2000/svg">
<path d="M44.3229 23.2903C44.3229 24.6963 43.2811 25.7976 42.1005 25.7976H39.8781L39.9267 38.3108C39.9406 41.0837 37.9473 43.3333 35.4819 43.3333H13.23C10.7784 43.3333 8.78514 41.0915 8.78514 38.3342V25.7976H6.55579C5.30568 25.7976 4.33337 24.7041 4.33337 23.2903C4.33337 22.5873 4.54173 21.9624 5.02788 21.4157L22.8349 3.95813C23.3211 3.41136 23.8767 3.33325 24.3629 3.33325C24.849 3.33325 25.4046 3.48947 25.8213 3.88002L33.2247 11.1989V8.33228C33.2247 6.94973 34.2179 5.83276 35.4471 5.83276H37.6695C38.8988 5.83276 39.892 6.94973 39.892 8.33228V17.7836L43.5589 21.4078C44.1145 21.9546 44.3923 22.5795 44.3229 23.2825V23.2903ZM21.5571 18.3303C20.6334 18.3303 19.8903 19.1661 19.8903 20.205V26.4537C19.8903 27.4926 20.6334 28.3284 21.5571 28.3284H27.1131C28.0368 28.3284 28.7799 27.4926 28.7799 26.4537V20.205C28.7799 19.1661 28.0368 18.3303 27.1131 18.3303H21.5571Z" fill="#F9B501"/>
</svg>
