<svg width="25" height="25" viewBox="0 0 25 25" fill="none" xmlns="http://www.w3.org/2000/svg">
<path d="M6.3725 4.19633C6.7622 4.11858 7.16683 4.19864 7.49756 4.41894C7.82829 4.63924 8.05809 4.98177 8.1365 5.37133L9.8285 13.8303L11.2105 8.30133C11.2918 7.97699 11.4791 7.68911 11.7427 7.48341C12.0063 7.27771 12.3311 7.16599 12.6655 7.16599C12.9999 7.16599 13.3247 7.27771 13.5883 7.48341C13.8519 7.68911 14.0392 7.97699 14.1205 8.30133L15.5025 13.8303L17.1945 5.37033C17.2727 4.9802 17.5028 4.63713 17.8339 4.41658C18.1651 4.19604 18.5704 4.11609 18.9605 4.19433C19.3506 4.27257 19.6937 4.50259 19.9143 4.83378C20.1348 5.16497 20.2147 5.5702 20.1365 5.96033L19.4965 9.16633H19.6665C20.0643 9.16633 20.4459 9.32437 20.7272 9.60567C21.0085 9.88698 21.1665 10.2685 21.1665 10.6663C21.1665 11.0642 21.0085 11.4457 20.7272 11.727C20.4459 12.0083 20.0643 12.1663 19.6665 12.1663H18.8965L18.6965 13.1663H19.6665C20.0643 13.1663 20.4459 13.3244 20.7272 13.6057C21.0085 13.887 21.1665 14.2685 21.1665 14.6663C21.1665 15.0642 21.0085 15.4457 20.7272 15.727C20.4459 16.0083 20.0643 16.1663 19.6665 16.1663H18.0965L17.3115 20.0883C16.9565 21.8663 14.4355 21.9263 13.9955 20.1673L12.6665 14.8513L11.3365 20.1663C10.8975 21.9263 8.3765 21.8663 8.0215 20.0873L7.2365 16.1663H5.6665C5.26868 16.1663 4.88715 16.0083 4.60584 15.727C4.32454 15.4457 4.1665 15.0642 4.1665 14.6663C4.1665 14.2685 4.32454 13.887 4.60584 13.6057C4.88715 13.3244 5.26868 13.1663 5.6665 13.1663H6.6365L6.4365 12.1663H5.6665C5.26868 12.1663 4.88715 12.0083 4.60584 11.727C4.32454 11.4457 4.1665 11.0642 4.1665 10.6663C4.1665 10.2685 4.32454 9.88698 4.60584 9.60567C4.88715 9.32437 5.26868 9.16633 5.6665 9.16633H5.8365L5.1965 5.96033C5.11875 5.57063 5.19881 5.166 5.41911 4.83528C5.63941 4.50455 5.98294 4.27475 6.3725 4.19633Z" fill="#F9B501"/>
</svg>
