<svg width="17" height="17" viewBox="0 0 17 17" fill="none" xmlns="http://www.w3.org/2000/svg">
<path d="M8.66683 6.00016C7.1935 6.00016 6.00016 7.1935 6.00016 8.66683C6.00016 10.1402 7.1935 11.3335 8.66683 11.3335C10.1402 11.3335 11.3335 10.1402 11.3335 8.66683C11.3335 7.1935 10.1402 6.00016 8.66683 6.00016ZM14.6268 8.00016C14.4758 6.64824 13.8696 5.38785 12.9077 4.42596C11.9458 3.46406 10.6854 2.85784 9.3335 2.70683V1.3335H8.00016V2.70683C6.64824 2.85784 5.38785 3.46406 4.42596 4.42596C3.46406 5.38785 2.85784 6.64824 2.70683 8.00016H1.3335V9.3335H2.70683C2.85784 10.6854 3.46406 11.9458 4.42596 12.9077C5.38785 13.8696 6.64824 14.4758 8.00016 14.6268V16.0002H9.3335V14.6268C10.6854 14.4758 11.9458 13.8696 12.9077 12.9077C13.8696 11.9458 14.4758 10.6854 14.6268 9.3335H16.0002V8.00016H14.6268ZM8.66683 13.3335C6.08683 13.3335 4.00016 11.2468 4.00016 8.66683C4.00016 6.08683 6.08683 4.00016 8.66683 4.00016C11.2468 4.00016 13.3335 6.08683 13.3335 8.66683C13.3335 11.2468 11.2468 13.3335 8.66683 13.3335Z" fill="#CCCCCC"/>
</svg>
