<svg width="21" height="20" viewBox="0 0 21 20" fill="none" xmlns="http://www.w3.org/2000/svg">
<g id="ion:bulb">
<path id="Vector" d="M11.916 18.125H9.41603C9.25027 18.125 9.0913 18.1909 8.97409 18.3081C8.85688 18.4253 8.79103 18.5843 8.79103 18.75C8.79103 18.9158 8.85688 19.0747 8.97409 19.192C9.0913 19.3092 9.25027 19.375 9.41603 19.375H11.916C12.0818 19.375 12.2408 19.3092 12.358 19.192C12.4752 19.0747 12.541 18.9158 12.541 18.75C12.541 18.5843 12.4752 18.4253 12.358 18.3081C12.2408 18.1909 12.0818 18.125 11.916 18.125ZM12.541 16.25H8.79103C8.62527 16.25 8.4663 16.3159 8.34909 16.4331C8.23188 16.5503 8.16603 16.7093 8.16603 16.875C8.16603 17.0408 8.23188 17.1997 8.34909 17.317C8.4663 17.4342 8.62527 17.5 8.79103 17.5H12.541C12.7068 17.5 12.8658 17.4342 12.983 17.317C13.1002 17.1997 13.166 17.0408 13.166 16.875C13.166 16.7093 13.1002 16.5503 12.983 16.4331C12.8658 16.3159 12.7068 16.25 12.541 16.25ZM15.0965 2.44885C13.9219 1.27267 12.3485 0.625018 10.666 0.625018C9.84472 0.62306 9.03112 0.783385 8.27195 1.09678C7.51278 1.41018 6.82301 1.87048 6.24225 2.45124C5.66149 3.03199 5.2012 3.72176 4.8878 4.48093C4.5744 5.2401 4.41408 6.05371 4.41603 6.87502C4.41603 8.69611 5.11408 10.3996 6.3301 11.5485L6.50041 11.7082C7.20392 12.366 8.16603 13.2672 8.16603 14.0625V15C8.16603 15.1658 8.23188 15.3247 8.34909 15.442C8.4663 15.5592 8.62527 15.625 8.79103 15.625H9.72853C9.81141 15.625 9.8909 15.5921 9.9495 15.5335C10.0081 15.4749 10.041 15.3954 10.041 15.3125V10.7352C10.0411 10.672 10.0219 10.6103 9.98614 10.5582C9.95036 10.5061 9.89963 10.466 9.84064 10.4434C9.47974 10.2961 9.13688 10.1081 8.81877 9.88283C8.74728 9.83718 8.68583 9.77746 8.63817 9.7073C8.5905 9.63713 8.55762 9.55801 8.54151 9.47473C8.52541 9.39145 8.52643 9.30577 8.5445 9.2229C8.56257 9.14002 8.59733 9.0617 8.64664 8.99269C8.69596 8.92368 8.7588 8.86543 8.83135 8.82148C8.9039 8.77754 8.98464 8.74883 9.06864 8.73709C9.15265 8.72535 9.23816 8.73083 9.31998 8.7532C9.4018 8.77557 9.4782 8.81436 9.54455 8.86721C9.83361 9.07189 10.3903 9.37502 10.666 9.37502C10.9418 9.37502 11.4985 9.07111 11.7883 8.86721C11.9233 8.78236 12.0855 8.75229 12.2419 8.78315C12.3983 8.814 12.537 8.90346 12.6296 9.0332C12.7223 9.16295 12.7618 9.32318 12.7402 9.48112C12.7185 9.63905 12.6374 9.78276 12.5133 9.88283C12.1951 10.1077 11.8523 10.2953 11.4914 10.4422C11.4324 10.4649 11.3817 10.5049 11.3459 10.557C11.3102 10.6091 11.291 10.6708 11.291 10.734V15.3125C11.291 15.3954 11.324 15.4749 11.3826 15.5335C11.4412 15.5921 11.5207 15.625 11.6035 15.625H12.541C12.7068 15.625 12.8658 15.5592 12.983 15.442C13.1002 15.3247 13.166 15.1658 13.166 15V14.0625C13.166 13.286 14.1176 12.3856 14.8125 11.7278L15.0043 11.5457C16.2551 10.3516 16.916 8.73478 16.916 6.87502C16.9202 6.05363 16.7615 5.23956 16.4492 4.47985C16.1369 3.72014 15.6771 3.02984 15.0965 2.44885Z" fill="#F9B501"/>
</g>
</svg>
